<?plantuml 1.2026.2?><svg xmlns="http://www.w3.org/2000/svg" xmlns:xlink="http://www.w3.org/1999/xlink" contentStyleType="text/css" data-diagram-type="ACTIVITY" height="840px" preserveAspectRatio="none" style="width:884px;height:840px;background:#FFFFFF;" version="1.1" viewBox="0 0 884 840" width="884px" zoomAndPan="magnify"><defs/><g><ellipse cx="531.8401" cy="20" fill="#222222" rx="10" ry="10" style="stroke:#222222;stroke-width:1;"/><path d="M670.5403,48.0156 L670.5403,62.9844 L650.5403,66.9844 L670.5403,70.9844 L670.5403,85.9531 A0,0 0 0 0 670.5403,85.9531 L872.595,85.9531 A0,0 0 0 0 872.595,85.9531 L872.595,58.0156 L862.595,48.0156 L670.5403,48.0156 A0,0 0 0 0 670.5403,48.0156" fill="#FFFFFF" style="stroke:#000000;stroke-width:0.5;"/><path d="M862.595,48.0156 L862.595,58.0156 L872.595,58.0156 L862.595,48.0156" fill="#FFFFFF" style="stroke:#000000;stroke-width:0.5;"/><text fill="#000000" font-family="'Verdana'" font-size="12" lengthAdjust="spacing" textLength="181.0547" x="676.5403" y="64.1543">&#1057;&#1086;&#1076;&#1077;&#1088;&#1078;&#1080;&#1090; &#1089;&#1089;&#1099;&#1083;&#1082;&#1091; &#1085;&#1072; &#1089;&#1090;&#1072;&#1090;&#1100;&#1102;</text><text fill="#000000" font-family="'Verdana'" font-size="12" lengthAdjust="spacing" textLength="124.9805" x="676.5403" y="78.123">&#1080; ID &#1089;&#1086;&#1073;&#1099;&#1090;&#1080;&#1103; GDELT</text><rect fill="#FFFFFF" height="33.9688" rx="12.5" ry="12.5" style="stroke:#000000;stroke-width:0.5;" width="237.4004" x="413.1399" y="50"/><text fill="#000000" font-family="'Verdana'" font-size="12" lengthAdjust="spacing" textLength="217.4004" x="423.1399" y="71.1387">&#1055;&#1086;&#1083;&#1091;&#1095;&#1077;&#1085;&#1080;&#1077; &#1089;&#1086;&#1086;&#1073;&#1097;&#1077;&#1085;&#1080;&#1103; &#1080;&#1079; &#1086;&#1095;&#1077;&#1088;&#1077;&#1076;&#1080;</text><rect fill="#FFFFFF" height="33.9688" rx="12.5" ry="12.5" style="stroke:#000000;stroke-width:0.5;" width="187.9766" x="437.8518" y="105.9531"/><text fill="#000000" font-family="'Verdana'" font-size="12" lengthAdjust="spacing" textLength="167.9766" x="447.8518" y="127.0918">&#1048;&#1079;&#1074;&#1083;&#1077;&#1095;&#1077;&#1085;&#1080;&#1077; &#1090;&#1077;&#1082;&#1089;&#1090;&#1072; &#1089;&#1090;&#1072;&#1090;&#1100;&#1080;</text><polygon fill="#FFFFFF" points="479.2727,159.9219,584.4075,159.9219,596.4075,171.9219,584.4075,183.9219,479.2727,183.9219,467.2727,171.9219,479.2727,159.9219" style="stroke:#000000;stroke-width:0.5;"/><text fill="#000000" font-family="'Verdana'" font-size="12" lengthAdjust="spacing" textLength="105.1348" x="479.2727" y="176.0762">&#1058;&#1077;&#1082;&#1089;&#1090; &#1076;&#1086;&#1089;&#1090;&#1091;&#1087;&#1077;&#1085;?</text><text fill="#000000" font-family="'Verdana'" font-size="12" lengthAdjust="spacing" textLength="15.6504" x="451.6223" y="169.0918">&#1076;&#1072;</text><text fill="#000000" font-family="'Verdana'" font-size="12" lengthAdjust="spacing" textLength="22.2188" x="596.4075" y="169.0918">&#1085;&#1077;&#1090;</text><rect fill="#FFFFFF" height="33.9688" rx="12.5" ry="12.5" style="stroke:#000000;stroke-width:0.5;" width="229.1973" x="228.6475" y="193.9219"/><text fill="#000000" font-family="'Verdana'" font-size="12" lengthAdjust="spacing" textLength="209.1973" x="238.6475" y="215.0605">&#1057;&#1086;&#1088;&#1090;&#1080;&#1088;&#1086;&#1074;&#1082;&#1072; &#1091;&#1087;&#1086;&#1084;&#1080;&#1085;&#1072;&#1085;&#1080;&#1081; &#1087;&#1086; &#1076;&#1072;&#1090;&#1077;</text><rect fill="#FFFFFF" height="33.9688" rx="12.5" ry="12.5" style="stroke:#000000;stroke-width:0.5;" width="217.4199" x="234.5361" y="247.8906"/><text fill="#000000" font-family="'Verdana'" font-size="12" lengthAdjust="spacing" textLength="197.4199" x="244.5361" y="269.0293">&#1054;&#1087;&#1088;&#1077;&#1076;&#1077;&#1083;&#1077;&#1085;&#1080;&#1077; &#1103;&#1079;&#1099;&#1082;&#1072; &#1080;&#1089;&#1090;&#1086;&#1095;&#1085;&#1080;&#1082;&#1072;</text><polygon fill="#FFFFFF" points="264.6895,301.8594,421.8027,301.8594,433.8027,315.8281,421.8027,329.7969,264.6895,329.7969,252.6895,315.8281,264.6895,301.8594" style="stroke:#000000;stroke-width:0.5;"/><text fill="#000000" font-family="'Verdana'" font-size="12" lengthAdjust="spacing" textLength="129.4453" x="264.6895" y="312.998">&#1071;&#1079;&#1099;&#1082; &#1087;&#1086;&#1076;&#1076;&#1077;&#1088;&#1078;&#1080;&#1074;&#1072;&#1077;&#1090;</text><text fill="#000000" font-family="'Verdana'" font-size="12" lengthAdjust="spacing" textLength="157.1133" x="264.6895" y="326.9668">&#1087;&#1088;&#1103;&#1084;&#1086;&#1077; &#1088;&#1077;&#1092;&#1077;&#1088;&#1080;&#1088;&#1086;&#1074;&#1072;&#1085;&#1080;&#1077;?</text><text fill="#000000" font-family="'Verdana'" font-size="12" lengthAdjust="spacing" textLength="15.6504" x="237.0391" y="312.998">&#1076;&#1072;</text><text fill="#000000" font-family="'Verdana'" font-size="12" lengthAdjust="spacing" textLength="22.2188" x="433.8027" y="312.998">&#1085;&#1077;&#1090;</text><rect fill="#FFFFFF" height="33.9688" rx="12.5" ry="12.5" style="stroke:#000000;stroke-width:0.5;" width="236.252" x="89.2261" y="339.7969"/><text fill="#000000" font-family="'Verdana'" font-size="12" lengthAdjust="spacing" textLength="216.252" x="99.2261" y="360.9355">&#1056;&#1077;&#1092;&#1077;&#1088;&#1080;&#1088;&#1086;&#1074;&#1072;&#1085;&#1080;&#1077; &#1080;&#1089;&#1093;&#1086;&#1076;&#1085;&#1086;&#1075;&#1086; &#1090;&#1077;&#1082;&#1089;&#1090;&#1072;</text><rect fill="#FFFFFF" height="47.9375" rx="12.5" ry="12.5" style="stroke:#000000;stroke-width:0.5;" width="192.582" x="382.8491" y="339.7969"/><text fill="#000000" font-family="'Verdana'" font-size="12" lengthAdjust="spacing" textLength="172.582" x="392.8491" y="360.9355">&#1052;&#1072;&#1096;&#1080;&#1085;&#1085;&#1099;&#1081; &#1087;&#1077;&#1088;&#1077;&#1074;&#1086;&#1076; &#1090;&#1077;&#1082;&#1089;&#1090;&#1072;</text><text fill="#000000" font-family="'Verdana'" font-size="12" lengthAdjust="spacing" textLength="108.416" x="392.8491" y="374.9043">&#1085;&#1072; &#1086;&#1087;&#1086;&#1088;&#1085;&#1099;&#1081; &#1103;&#1079;&#1099;&#1082;</text><rect fill="#FFFFFF" height="33.9688" rx="12.5" ry="12.5" style="stroke:#000000;stroke-width:0.5;" width="267.3242" x="345.478" y="407.7344"/><text fill="#000000" font-family="'Verdana'" font-size="12" lengthAdjust="spacing" textLength="247.3242" x="355.478" y="428.873">&#1056;&#1077;&#1092;&#1077;&#1088;&#1080;&#1088;&#1086;&#1074;&#1072;&#1085;&#1080;&#1077; &#1087;&#1077;&#1088;&#1077;&#1074;&#1077;&#1076;&#1077;&#1085;&#1085;&#1086;&#1075;&#1086; &#1090;&#1077;&#1082;&#1089;&#1090;&#1072;</text><polygon fill="#FFFFFF" points="343.2461,447.7031,355.2461,459.7031,343.2461,471.7031,331.2461,459.7031,343.2461,447.7031" style="stroke:#000000;stroke-width:0.5;"/><path d="M10,489.7188 L10,527.6563 A0,0 0 0 0 10,527.6563 L234.7363,527.6563 A0,0 0 0 0 234.7363,527.6563 L234.7363,512.6875 L254.7363,508.6875 L234.7363,504.6875 L234.7363,499.7188 L224.7363,489.7188 L10,489.7188 A0,0 0 0 0 10,489.7188" fill="#FFFFFF" style="stroke:#000000;stroke-width:0.5;"/><path d="M224.7363,489.7188 L224.7363,499.7188 L234.7363,499.7188 L224.7363,489.7188" fill="#FFFFFF" style="stroke:#000000;stroke-width:0.5;"/><text fill="#000000" font-family="'Verdana'" font-size="12" lengthAdjust="spacing" textLength="203.7363" x="16" y="505.8574">&#1054;&#1087;&#1088;&#1077;&#1076;&#1077;&#1083;&#1077;&#1085;&#1080;&#1077; &#1082;&#1072;&#1090;&#1077;&#1075;&#1086;&#1088;&#1080;&#1080; &#1091;&#1075;&#1088;&#1086;&#1079;&#1099;</text><text fill="#000000" font-family="'Verdana'" font-size="12" lengthAdjust="spacing" textLength="140.7422" x="16" y="519.8262">&#1080; &#1091;&#1088;&#1086;&#1074;&#1085;&#1103; &#1082;&#1088;&#1080;&#1090;&#1080;&#1095;&#1085;&#1086;&#1089;&#1090;&#1080;</text><rect fill="#FFFFFF" height="33.9688" rx="12.5" ry="12.5" style="stroke:#000000;stroke-width:0.5;" width="177.0195" x="254.7363" y="491.7031"/><text fill="#000000" font-family="'Verdana'" font-size="12" lengthAdjust="spacing" textLength="157.0195" x="264.7363" y="512.8418">&#1050;&#1083;&#1072;&#1089;&#1089;&#1080;&#1092;&#1080;&#1082;&#1072;&#1094;&#1080;&#1103; &#1089;&#1086;&#1073;&#1099;&#1090;&#1080;&#1103;</text><rect fill="#FFFFFF" height="33.9688" rx="12.5" ry="12.5" style="stroke:#000000;stroke-width:0.5;" width="93.4063" x="296.543" y="547.6563"/><text fill="#000000" font-family="'Verdana'" font-size="12" lengthAdjust="spacing" textLength="73.4063" x="306.543" y="568.7949">&#1043;&#1077;&#1086;&#1087;&#1072;&#1088;&#1089;&#1080;&#1085;&#1075;</text><rect fill="#FFFFFF" height="33.9688" rx="12.5" ry="12.5" style="stroke:#000000;stroke-width:0.5;" width="208.3379" x="239.0771" y="601.625"/><text fill="#000000" font-family="'Verdana'" font-size="12" lengthAdjust="spacing" textLength="188.3379" x="249.0771" y="622.7637">&#1043;&#1077;&#1085;&#1077;&#1088;&#1072;&#1094;&#1080;&#1103; &#1086;&#1087;&#1080;&#1089;&#1072;&#1085;&#1080;&#1103; &#1089;&#1086;&#1073;&#1099;&#1090;&#1080;&#1103;</text><rect fill="#FFFFFF" height="47.9375" rx="12.5" ry="12.5" style="stroke:#000000;stroke-width:0.5;" width="197.3984" x="244.5469" y="655.5938"/><text fill="#000000" font-family="'Verdana'" font-size="12" lengthAdjust="spacing" textLength="177.3984" x="254.5469" y="676.7324">&#1043;&#1077;&#1085;&#1077;&#1088;&#1072;&#1094;&#1080;&#1103; &#1083;&#1086;&#1082;&#1072;&#1083;&#1080;&#1079;&#1086;&#1074;&#1072;&#1085;&#1085;&#1099;&#1093;</text><text fill="#000000" font-family="'Verdana'" font-size="12" lengthAdjust="spacing" textLength="146.9355" x="254.5469" y="690.7012">&#1079;&#1072;&#1075;&#1086;&#1083;&#1086;&#1074;&#1082;&#1086;&#1074; &#1080; &#1086;&#1087;&#1080;&#1089;&#1072;&#1085;&#1080;&#1081;</text><rect fill="#FFFFFF" height="33.9688" rx="12.5" ry="12.5" style="stroke:#000000;stroke-width:0.5;" width="370.2617" x="158.1152" y="723.5313"/><text fill="#000000" font-family="'Verdana'" font-size="12" lengthAdjust="spacing" textLength="350.2617" x="168.1152" y="744.6699">&#1054;&#1090;&#1087;&#1088;&#1072;&#1074;&#1082;&#1072; &#1088;&#1077;&#1079;&#1091;&#1083;&#1100;&#1090;&#1072;&#1090;&#1072; &#1085;&#1072; &#1089;&#1077;&#1088;&#1074;&#1077;&#1088;&#1085;&#1091;&#1102; &#1095;&#1072;&#1089;&#1090;&#1100; &#1087;&#1088;&#1080;&#1083;&#1086;&#1078;&#1077;&#1085;&#1080;&#1103;</text><rect fill="#FFFFFF" height="33.9688" rx="12.5" ry="12.5" style="stroke:#000000;stroke-width:0.5;" width="155.2637" x="642.8022" y="193.9219"/><text fill="#000000" font-family="'Verdana'" font-size="12" lengthAdjust="spacing" textLength="135.2637" x="652.8022" y="215.0605">&#1051;&#1086;&#1075;&#1080;&#1088;&#1086;&#1074;&#1072;&#1085;&#1080;&#1077; &#1086;&#1096;&#1080;&#1073;&#1082;&#1080;</text><rect fill="#FFFFFF" height="33.9688" rx="12.5" ry="12.5" style="stroke:#000000;stroke-width:0.5;" width="143.082" x="648.8931" y="247.8906"/><text fill="#000000" font-family="'Verdana'" font-size="12" lengthAdjust="spacing" textLength="123.082" x="658.8931" y="269.0293">&#1055;&#1088;&#1086;&#1087;&#1091;&#1089;&#1082; &#1086;&#1073;&#1088;&#1072;&#1073;&#1086;&#1090;&#1082;&#1080;</text><polygon fill="#FFFFFF" points="531.8401,763.5,543.8401,775.5,531.8401,787.5,519.8401,775.5,531.8401,763.5" style="stroke:#000000;stroke-width:0.5;"/><ellipse cx="531.8401" cy="818.5" fill="none" rx="11" ry="11" style="stroke:#222222;stroke-width:1;"/><ellipse cx="531.8401" cy="818.5" fill="#222222" rx="6" ry="6" style="stroke:#222222;stroke-width:1;"/><line style="stroke:#181818;stroke-width:1;" x1="531.8401" x2="531.8401" y1="30" y2="50"/><polygon fill="#181818" points="527.8401,40,531.8401,50,535.8401,40,531.8401,44" style="stroke:#181818;stroke-width:1;"/><line style="stroke:#181818;stroke-width:1;" x1="531.8401" x2="531.8401" y1="83.9688" y2="105.9531"/><polygon fill="#181818" points="527.8401,95.9531,531.8401,105.9531,535.8401,95.9531,531.8401,99.9531" style="stroke:#181818;stroke-width:1;"/><line style="stroke:#181818;stroke-width:1;" x1="343.2461" x2="343.2461" y1="227.8906" y2="247.8906"/><polygon fill="#181818" points="339.2461,237.8906,343.2461,247.8906,347.2461,237.8906,343.2461,241.8906" style="stroke:#181818;stroke-width:1;"/><line style="stroke:#181818;stroke-width:1;" x1="479.1401" x2="479.1401" y1="387.7344" y2="407.7344"/><polygon fill="#181818" points="475.1401,397.7344,479.1401,407.7344,483.1401,397.7344,479.1401,401.7344" style="stroke:#181818;stroke-width:1;"/><line style="stroke:#181818;stroke-width:1;" x1="252.6895" x2="207.3521" y1="315.8281" y2="315.8281"/><line style="stroke:#181818;stroke-width:1;" x1="207.3521" x2="207.3521" y1="315.8281" y2="339.7969"/><polygon fill="#181818" points="203.3521,329.7969,207.3521,339.7969,211.3521,329.7969,207.3521,333.7969" style="stroke:#181818;stroke-width:1;"/><line style="stroke:#181818;stroke-width:1;" x1="433.8027" x2="479.1401" y1="315.8281" y2="315.8281"/><line style="stroke:#181818;stroke-width:1;" x1="479.1401" x2="479.1401" y1="315.8281" y2="339.7969"/><polygon fill="#181818" points="475.1401,329.7969,479.1401,339.7969,483.1401,329.7969,479.1401,333.7969" style="stroke:#181818;stroke-width:1;"/><line style="stroke:#181818;stroke-width:1;" x1="207.3521" x2="207.3521" y1="373.7656" y2="459.7031"/><line style="stroke:#181818;stroke-width:1;" x1="207.3521" x2="331.2461" y1="459.7031" y2="459.7031"/><polygon fill="#181818" points="321.2461,455.7031,331.2461,459.7031,321.2461,463.7031,325.2461,459.7031" style="stroke:#181818;stroke-width:1;"/><line style="stroke:#181818;stroke-width:1;" x1="479.1401" x2="479.1401" y1="441.7031" y2="459.7031"/><line style="stroke:#181818;stroke-width:1;" x1="479.1401" x2="355.2461" y1="459.7031" y2="459.7031"/><polygon fill="#181818" points="365.2461,455.7031,355.2461,459.7031,365.2461,463.7031,361.2461,459.7031" style="stroke:#181818;stroke-width:1;"/><line style="stroke:#181818;stroke-width:1;" x1="343.2461" x2="343.2461" y1="281.8594" y2="301.8594"/><polygon fill="#181818" points="339.2461,291.8594,343.2461,301.8594,347.2461,291.8594,343.2461,295.8594" style="stroke:#181818;stroke-width:1;"/><line style="stroke:#181818;stroke-width:1;" x1="343.2461" x2="343.2461" y1="471.7031" y2="491.7031"/><polygon fill="#181818" points="339.2461,481.7031,343.2461,491.7031,347.2461,481.7031,343.2461,485.7031" style="stroke:#181818;stroke-width:1;"/><line style="stroke:#181818;stroke-width:1;" x1="343.2461" x2="343.2461" y1="525.6719" y2="547.6563"/><polygon fill="#181818" points="339.2461,537.6563,343.2461,547.6563,347.2461,537.6563,343.2461,541.6563" style="stroke:#181818;stroke-width:1;"/><line style="stroke:#181818;stroke-width:1;" x1="343.2461" x2="343.2461" y1="581.625" y2="601.625"/><polygon fill="#181818" points="339.2461,591.625,343.2461,601.625,347.2461,591.625,343.2461,595.625" style="stroke:#181818;stroke-width:1;"/><line style="stroke:#181818;stroke-width:1;" x1="343.2461" x2="343.2461" y1="635.5938" y2="655.5938"/><polygon fill="#181818" points="339.2461,645.5938,343.2461,655.5938,347.2461,645.5938,343.2461,649.5938" style="stroke:#181818;stroke-width:1;"/><line style="stroke:#181818;stroke-width:1;" x1="343.2461" x2="343.2461" y1="703.5313" y2="723.5313"/><polygon fill="#181818" points="339.2461,713.5313,343.2461,723.5313,347.2461,713.5313,343.2461,717.5313" style="stroke:#181818;stroke-width:1;"/><line style="stroke:#181818;stroke-width:1;" x1="720.4341" x2="720.4341" y1="227.8906" y2="247.8906"/><polygon fill="#181818" points="716.4341,237.8906,720.4341,247.8906,724.4341,237.8906,720.4341,241.8906" style="stroke:#181818;stroke-width:1;"/><line style="stroke:#181818;stroke-width:1;" x1="467.2727" x2="343.2461" y1="171.9219" y2="171.9219"/><line style="stroke:#181818;stroke-width:1;" x1="343.2461" x2="343.2461" y1="171.9219" y2="193.9219"/><polygon fill="#181818" points="339.2461,183.9219,343.2461,193.9219,347.2461,183.9219,343.2461,187.9219" style="stroke:#181818;stroke-width:1;"/><line style="stroke:#181818;stroke-width:1;" x1="596.4075" x2="720.4341" y1="171.9219" y2="171.9219"/><line style="stroke:#181818;stroke-width:1;" x1="720.4341" x2="720.4341" y1="171.9219" y2="193.9219"/><polygon fill="#181818" points="716.4341,183.9219,720.4341,193.9219,724.4341,183.9219,720.4341,187.9219" style="stroke:#181818;stroke-width:1;"/><line style="stroke:#181818;stroke-width:1;" x1="343.2461" x2="343.2461" y1="757.5" y2="775.5"/><line style="stroke:#181818;stroke-width:1;" x1="343.2461" x2="519.8401" y1="775.5" y2="775.5"/><polygon fill="#181818" points="509.8401,771.5,519.8401,775.5,509.8401,779.5,513.8401,775.5" style="stroke:#181818;stroke-width:1;"/><line style="stroke:#181818;stroke-width:1;" x1="720.4341" x2="720.4341" y1="281.8594" y2="775.5"/><line style="stroke:#181818;stroke-width:1;" x1="720.4341" x2="543.8401" y1="775.5" y2="775.5"/><polygon fill="#181818" points="553.8401,771.5,543.8401,775.5,553.8401,779.5,549.8401,775.5" style="stroke:#181818;stroke-width:1;"/><line style="stroke:#181818;stroke-width:1;" x1="531.8401" x2="531.8401" y1="139.9219" y2="159.9219"/><polygon fill="#181818" points="527.8401,149.9219,531.8401,159.9219,535.8401,149.9219,531.8401,153.9219" style="stroke:#181818;stroke-width:1;"/><line style="stroke:#181818;stroke-width:1;" x1="531.8401" x2="531.8401" y1="787.5" y2="807.5"/><polygon fill="#181818" points="527.8401,797.5,531.8401,807.5,535.8401,797.5,531.8401,801.5" style="stroke:#181818;stroke-width:1;"/><?plantuml-src XLJBRjDG4DtxAwwweajO9Wi4110IwWR4Yes9dSHgObUEGmMhF5eUQjKks210BV03EA_6JUha5-R-4MVcnY5jKg98ZdDdvfmpvywalklvUtPerrGjy8DY9Gngheh2XclL5v5wnNQ2VSylgv9ThIz77BTaDwhHay2FTcmKRhroGyVsxQtrEI-yzwwwUyzQYZueHjvRBthtq2xkbiEWuJkFWceGglsA5oqp5JmR0frDQJj1v6xAML06eUE69kTD5KLhwFwJ8bGhSQiUsM5aMJawfobDT4T_f26bbD1GwHQEfjJLdysHFbKu7ocQSf9kudH0ITxoWQn2hro9Sef-eM8WqGjKj062pn5DQAmx2YWndxGfrcrzh4zU-vIePmL3rTL7Y33DqyBZvozPr5SQKG_5msLPRRoE3SeI62lnIkeE_Sx22aAc_A8xDEFo-zigghW-SWOKRrjAvLYkRWfh4mfwD6PCJf_I5TYWLrWl5HynOCpqUQazezdSX25BpEITqWWDCn1GMHxRnJ4SSQ68_6EI11O02ySW8SPx6yO075XNY0CKFFf0aZAbHjXmfITMzlEsR2FfK3XJFFjeQjbFrkTYPm2NiemCy0Vw_YH-f90jRfW1w37KDGWevrl6-OozdHTahkGtA_m7RQnDRrVgErv9hk8RBY3cKGFSWR5QVv1HkZvPN2NZMdLBFAthhr3AcQil7IIOKSn4NuIY2nbQR8hHdV9QZAKHfk2hbg6Z15mYxWkGs8qO5zeI4_lvHI2LRZEraeShCcwibR-sR88iYCOt5dHX9wpNXr0xmgy-h_TynF748DmWeyjy9lWCREnBd2q4MpI21HFihAmRNx3PPT7HasSAJquK78XbwOwLW2H2Uv7zXUIjc_ELe-zolok3C9MHwq92OXe_bumPQ5gyEcmCY-mYissop4JWJotO-mi0?></g></svg>