<?plantuml 1.2026.2?><svg xmlns="http://www.w3.org/2000/svg" xmlns:xlink="http://www.w3.org/1999/xlink" contentStyleType="text/css" data-diagram-type="CLASS" height="681px" preserveAspectRatio="none" style="width:981px;height:681px;background:#FFFFFF;" version="1.1" viewBox="0 0 981 681" width="981px" zoomAndPan="magnify"><defs/><g><!--class TransportType--><g class="entity" data-qualified-name="TransportType" data-source-line="18" id="ent0002"><rect fill="#FFFFFF" height="115.8438" rx="2.5" ry="2.5" style="stroke:#000000;stroke-width:0.5;" width="133.6758" x="354.54" y="551.39"/><ellipse cx="375.8173" cy="566.39" fill="#ABABAB" rx="10" ry="10" style="stroke:#181818;stroke-width:1;"/><path d="M378.2548,570.89 L372.8017,570.89 L372.8017,562.14 L378.2548,562.14 L378.2548,563.6713 L374.5361,563.6713 L374.5361,565.5463 L377.8955,565.5463 L377.8955,567.0775 L374.5361,567.0775 L374.5361,569.3588 L378.2548,569.3588 L378.2548,570.89 Z " fill="#000000"/><text fill="#000000" font-family="'Verdana'" font-size="12" lengthAdjust="spacing" textLength="87.5039" x="390.4345" y="570.5443">TransportType</text><line style="stroke:#000000;stroke-width:0.5;" x1="355.54" x2="487.2158" y1="581.39" y2="581.39"/><text fill="#000000" font-family="'Verdana'" font-size="12" lengthAdjust="spacing" textLength="24.9258" x="360.54" y="596.5287">CAR</text><text fill="#000000" font-family="'Verdana'" font-size="12" lengthAdjust="spacing" textLength="56.4434" x="360.54" y="610.4974">WALKING</text><text fill="#000000" font-family="'Verdana'" font-size="12" lengthAdjust="spacing" textLength="50.127" x="360.54" y="624.4662">BICYCLE</text><text fill="#000000" font-family="'Verdana'" font-size="12" lengthAdjust="spacing" textLength="121.6758" x="360.54" y="638.4349">PUBLIC_TRANSPORT</text><text fill="#000000" font-family="'Verdana'" font-size="12" lengthAdjust="spacing" textLength="42.7793" x="360.54" y="652.4037">FLIGHT</text><line style="stroke:#000000;stroke-width:0.5;" x1="355.54" x2="487.2158" y1="659.2338" y2="659.2338"/></g><!--class EventSeverity--><g class="entity" data-qualified-name="EventSeverity" data-source-line="26" id="ent0003"><rect fill="#FFFFFF" height="87.9063" rx="2.5" ry="2.5" style="stroke:#000000;stroke-width:0.5;" width="120.2109" x="854.27" y="282.69"/><ellipse cx="871.0939" cy="297.69" fill="#ABABAB" rx="10" ry="10" style="stroke:#181818;stroke-width:1;"/><path d="M873.5314,302.19 L868.0783,302.19 L868.0783,293.44 L873.5314,293.44 L873.5314,294.9713 L869.8127,294.9713 L869.8127,296.8463 L873.1721,296.8463 L873.1721,298.3775 L869.8127,298.3775 L869.8127,300.6588 L873.5314,300.6588 L873.5314,302.19 Z " fill="#000000"/><text fill="#000000" font-family="'Verdana'" font-size="12" lengthAdjust="spacing" textLength="83.9355" x="884.7215" y="301.8443">EventSeverity</text><line style="stroke:#000000;stroke-width:0.5;" x1="855.27" x2="973.4809" y1="312.69" y2="312.69"/><text fill="#000000" font-family="'Verdana'" font-size="12" lengthAdjust="spacing" textLength="85.0547" x="860.27" y="327.8287">INFORMATION</text><text fill="#000000" font-family="'Verdana'" font-size="12" lengthAdjust="spacing" textLength="59.2031" x="860.27" y="341.7974">WARNING</text><text fill="#000000" font-family="'Verdana'" font-size="12" lengthAdjust="spacing" textLength="108.2109" x="860.27" y="355.7662">CRITICAL_THREAT</text><line style="stroke:#000000;stroke-width:0.5;" x1="855.27" x2="973.4809" y1="362.5963" y2="362.5963"/></g><!--class User--><g class="entity" data-qualified-name="User" data-source-line="32" id="ent0004"><rect fill="#FFFFFF" height="115.8438" rx="2.5" ry="2.5" style="stroke:#000000;stroke-width:0.5;" width="188.7539" x="43" y="268.72"/><ellipse cx="119.7012" cy="283.72" fill="#C2C2C2" rx="10" ry="10" style="stroke:#181818;stroke-width:1;"/><path d="M121.5293,287.97 Q121.123,288.1731 120.6699,288.2825 Q120.2168,288.3919 119.7324,288.3919 Q117.9512,288.3919 117.0137,287.2356 Q116.0918,286.0638 116.0918,283.8606 Q116.0918,281.6419 117.0137,280.4856 Q117.9512,279.3138 119.7324,279.3138 Q120.2168,279.3138 120.6699,279.4231 Q121.1387,279.5169 121.5293,279.7356 L121.5293,281.6575 Q121.0918,281.2513 120.6699,281.0638 Q120.248,280.8606 119.8105,280.8606 Q118.8574,280.8606 118.373,281.6263 Q117.8887,282.3763 117.8887,283.8606 Q117.8887,285.3294 118.373,286.0794 Q118.8574,286.8294 119.8105,286.8294 Q120.248,286.8294 120.6699,286.6419 Q121.0918,286.4544 121.5293,286.0481 L121.5293,287.97 Z " fill="#000000"/><text fill="#000000" font-family="'Verdana'" font-size="12" lengthAdjust="spacing" textLength="27.3516" x="138.7012" y="287.8743">User</text><line style="stroke:#000000;stroke-width:0.5;" x1="44" x2="230.7539" y1="298.72" y2="298.72"/><text fill="#000000" font-family="'Verdana'" font-size="12" lengthAdjust="spacing" textLength="83.4492" x="49" y="313.8587">+UUID id [PK]</text><text fill="#000000" font-family="'Verdana'" font-size="12" lengthAdjust="spacing" textLength="109.8867" x="49" y="327.8274">+String username</text><text fill="#000000" font-family="'Verdana'" font-size="12" lengthAdjust="spacing" textLength="82.7754" x="49" y="341.7962">+String email</text><text fill="#000000" font-family="'Verdana'" font-size="12" lengthAdjust="spacing" textLength="147.4336" x="49" y="355.7649">+String preferred_locale</text><text fill="#000000" font-family="'Verdana'" font-size="12" lengthAdjust="spacing" textLength="176.7539" x="49" y="369.7337">+Boolean share_live_location</text><line style="stroke:#000000;stroke-width:0.5;" x1="44" x2="230.7539" y1="376.5638" y2="376.5638"/></g><!--class UserLocation--><g class="entity" data-qualified-name="UserLocation" data-source-line="40" id="ent0005"><rect fill="#FFFFFF" height="115.8438" rx="2.5" ry="2.5" style="stroke:#000000;stroke-width:0.5;" width="260.7539" x="7" y="551.39"/><ellipse cx="94.2188" cy="566.39" fill="#C2C2C2" rx="10" ry="10" style="stroke:#181818;stroke-width:1;"/><path d="M96.0469,570.64 Q95.6406,570.8431 95.1875,570.9525 Q94.7344,571.0619 94.25,571.0619 Q92.4688,571.0619 91.5313,569.9056 Q90.6094,568.7338 90.6094,566.5306 Q90.6094,564.3119 91.5313,563.1556 Q92.4688,561.9838 94.25,561.9838 Q94.7344,561.9838 95.1875,562.0931 Q95.6563,562.1869 96.0469,562.4056 L96.0469,564.3275 Q95.6094,563.9213 95.1875,563.7338 Q94.7656,563.5306 94.3281,563.5306 Q93.375,563.5306 92.8906,564.2963 Q92.4063,565.0463 92.4063,566.5306 Q92.4063,567.9994 92.8906,568.7494 Q93.375,569.4994 94.3281,569.4994 Q94.7656,569.4994 95.1875,569.3119 Q95.6094,569.1244 96.0469,568.7181 L96.0469,570.64 Z " fill="#000000"/><text fill="#000000" font-family="'Verdana'" font-size="12" lengthAdjust="spacing" textLength="78.3164" x="113.2188" y="570.5443">UserLocation</text><line style="stroke:#000000;stroke-width:0.5;" x1="8" x2="266.7539" y1="581.39" y2="581.39"/><text fill="#000000" font-family="'Verdana'" font-size="12" lengthAdjust="spacing" textLength="83.4492" x="13" y="596.5287">+UUID id [PK]</text><text fill="#000000" font-family="'Verdana'" font-size="12" lengthAdjust="spacing" textLength="115.2891" x="13" y="610.4974">+UUID user_id [FK]</text><text fill="#000000" font-family="'Verdana'" font-size="12" lengthAdjust="spacing" textLength="112.002" x="13" y="624.4662">+Float speed_kmh</text><text fill="#000000" font-family="'Verdana'" font-size="12" lengthAdjust="spacing" textLength="153.0879" x="13" y="638.4349">+Timestamp recorded_at</text><line style="stroke:#000000;stroke-width:0.5;" x1="8" x2="266.7539" y1="645.265" y2="645.265"/><text fill="#000000" font-family="'Verdana'" font-size="12" lengthAdjust="spacing" textLength="248.7539" x="13" y="660.4037">+Geometry(Point, 4326) current_position</text></g><!--class Route--><g class="entity" data-qualified-name="Route" data-source-line="48" id="ent0006"><rect fill="#FFFFFF" height="143.7813" rx="2.5" ry="2.5" style="stroke:#000000;stroke-width:0.5;" width="219.1758" x="311.79" y="254.75"/><ellipse cx="399.6914" cy="269.75" fill="#C2C2C2" rx="10" ry="10" style="stroke:#181818;stroke-width:1;"/><path d="M401.5195,274 Q401.1132,274.2031 400.6601,274.3125 Q400.207,274.4219 399.7226,274.4219 Q397.9414,274.4219 397.0039,273.2656 Q396.082,272.0938 396.082,269.8906 Q396.082,267.6719 397.0039,266.5156 Q397.9414,265.3438 399.7226,265.3438 Q400.207,265.3438 400.6601,265.4531 Q401.1289,265.5469 401.5195,265.7656 L401.5195,267.6875 Q401.082,267.2813 400.6601,267.0938 Q400.2382,266.8906 399.8007,266.8906 Q398.8476,266.8906 398.3632,267.6563 Q397.8789,268.4063 397.8789,269.8906 Q397.8789,271.3594 398.3632,272.1094 Q398.8476,272.8594 399.8007,272.8594 Q400.2382,272.8594 400.6601,272.6719 Q401.082,272.4844 401.5195,272.0781 L401.5195,274 Z " fill="#000000"/><text fill="#000000" font-family="'Verdana'" font-size="12" lengthAdjust="spacing" textLength="35.373" x="418.6914" y="273.9043">Route</text><line style="stroke:#000000;stroke-width:0.5;" x1="312.79" x2="529.9658" y1="284.75" y2="284.75"/><text fill="#000000" font-family="'Verdana'" font-size="12" lengthAdjust="spacing" textLength="83.4492" x="317.79" y="299.8887">+UUID id [PK]</text><text fill="#000000" font-family="'Verdana'" font-size="12" lengthAdjust="spacing" textLength="115.2891" x="317.79" y="313.8574">+UUID user_id [FK]</text><text fill="#000000" font-family="'Verdana'" font-size="12" lengthAdjust="spacing" textLength="189.627" x="317.79" y="327.8262">+TransportType transport_type</text><text fill="#000000" font-family="'Verdana'" font-size="12" lengthAdjust="spacing" textLength="100.9863" x="317.79" y="341.7949">+Geometry path</text><text fill="#000000" font-family="'Verdana'" font-size="12" lengthAdjust="spacing" textLength="207.1758" x="317.79" y="355.7637">+Timestamp estimated_departure</text><text fill="#000000" font-family="'Verdana'" font-size="12" lengthAdjust="spacing" textLength="185.9883" x="317.79" y="369.7324">+Timestamp estimated_arrival</text><text fill="#000000" font-family="'Verdana'" font-size="12" lengthAdjust="spacing" textLength="114.5215" x="317.79" y="383.7012">+Boolean is_active</text><line style="stroke:#000000;stroke-width:0.5;" x1="312.79" x2="529.9658" y1="390.5313" y2="390.5313"/></g><!--class Event--><g class="entity" data-qualified-name="Event" data-source-line="58" id="ent0007"><rect fill="#FFFFFF" height="255.5313" rx="2.5" ry="2.5" style="stroke:#000000;stroke-width:0.5;" width="163.6641" x="610.54" y="198.88"/><ellipse cx="671.1836" cy="213.88" fill="#C2C2C2" rx="10" ry="10" style="stroke:#181818;stroke-width:1;"/><path d="M673.0117,218.13 Q672.6054,218.3331 672.1523,218.4425 Q671.6992,218.5519 671.2148,218.5519 Q669.4336,218.5519 668.4961,217.3956 Q667.5742,216.2238 667.5742,214.0206 Q667.5742,211.8019 668.4961,210.6456 Q669.4336,209.4738 671.2148,209.4738 Q671.6992,209.4738 672.1523,209.5831 Q672.6211,209.6769 673.0117,209.8956 L673.0117,211.8175 Q672.5742,211.4113 672.1523,211.2238 Q671.7304,211.0206 671.2929,211.0206 Q670.3398,211.0206 669.8554,211.7863 Q669.3711,212.5363 669.3711,214.0206 Q669.3711,215.4894 669.8554,216.2394 Q670.3398,216.9894 671.2929,216.9894 Q671.7304,216.9894 672.1523,216.8019 Q672.5742,216.6144 673.0117,216.2081 L673.0117,218.13 Z " fill="#000000"/><text fill="#000000" font-family="'Verdana'" font-size="12" lengthAdjust="spacing" textLength="34.377" x="690.1836" y="218.0343">Event</text><line style="stroke:#000000;stroke-width:0.5;" x1="611.54" x2="773.2041" y1="228.88" y2="228.88"/><text fill="#000000" font-family="'Verdana'" font-size="12" lengthAdjust="spacing" textLength="83.4492" x="616.54" y="244.0187">+UUID id [PK]</text><text fill="#000000" font-family="'Verdana'" font-size="12" lengthAdjust="spacing" textLength="142.0488" x="616.54" y="257.9874">+Integer source_id [FK]</text><text fill="#000000" font-family="'Verdana'" font-size="12" lengthAdjust="spacing" textLength="128.7422" x="616.54" y="271.9562">+Integer type_id [FK]</text><text fill="#000000" font-family="'Verdana'" font-size="12" lengthAdjust="spacing" textLength="116.4316" x="616.54" y="285.9249">+String external_id</text><text fill="#000000" font-family="'Verdana'" font-size="12" lengthAdjust="spacing" textLength="151.6641" x="616.54" y="299.8937">+String source_language</text><text fill="#000000" font-family="'Verdana'" font-size="12" lengthAdjust="spacing" textLength="107.3496" x="616.54" y="313.8624">+JSONB title_i18n</text><text fill="#000000" font-family="'Verdana'" font-size="12" lengthAdjust="spacing" textLength="150.6094" x="616.54" y="327.8312">+JSONB description_i18n</text><text fill="#000000" font-family="'Verdana'" font-size="12" lengthAdjust="spacing" textLength="140.5137" x="616.54" y="341.7999">+JSONB summary_i18n</text><text fill="#000000" font-family="'Verdana'" font-size="12" lengthAdjust="spacing" textLength="145.998" x="616.54" y="355.7687">+EventSeverity severity</text><text fill="#000000" font-family="'Verdana'" font-size="12" lengthAdjust="spacing" textLength="130.6465" x="616.54" y="369.7374">+Geometry epicenter</text><text fill="#000000" font-family="'Verdana'" font-size="12" lengthAdjust="spacing" textLength="148.0254" x="616.54" y="383.7062">+Geometry impact_area</text><text fill="#000000" font-family="'Verdana'" font-size="12" lengthAdjust="spacing" textLength="145.2539" x="616.54" y="397.6749">+Timestamp created_at</text><text fill="#000000" font-family="'Verdana'" font-size="12" lengthAdjust="spacing" textLength="149.1797" x="616.54" y="411.6437">+Timestamp updated_at</text><text fill="#000000" font-family="'Verdana'" font-size="12" lengthAdjust="spacing" textLength="143.2852" x="616.54" y="425.6124">+Timestamp expires_at</text><text fill="#000000" font-family="'Verdana'" font-size="12" lengthAdjust="spacing" textLength="139.1719" x="616.54" y="439.5812">+Integer update_count</text><line style="stroke:#000000;stroke-width:0.5;" x1="611.54" x2="773.2041" y1="446.4113" y2="446.4113"/></g><!--class Mention--><g class="entity" data-qualified-name="Mention" data-source-line="76" id="ent0008"><rect fill="#FFFFFF" height="129.8125" rx="2.5" ry="2.5" style="stroke:#000000;stroke-width:0.5;" width="169.6465" x="607.55" y="544.41"/><ellipse cx="664.2092" cy="559.41" fill="#C2C2C2" rx="10" ry="10" style="stroke:#181818;stroke-width:1;"/><path d="M666.0373,563.66 Q665.6311,563.8631 665.1779,563.9725 Q664.7248,564.0819 664.2404,564.0819 Q662.4592,564.0819 661.5217,562.9256 Q660.5998,561.7538 660.5998,559.5506 Q660.5998,557.3319 661.5217,556.1756 Q662.4592,555.0038 664.2404,555.0038 Q664.7248,555.0038 665.1779,555.1131 Q665.6467,555.2069 666.0373,555.4256 L666.0373,557.3475 Q665.5998,556.9413 665.1779,556.7538 Q664.7561,556.5506 664.3186,556.5506 Q663.3654,556.5506 662.8811,557.3163 Q662.3967,558.0663 662.3967,559.5506 Q662.3967,561.0194 662.8811,561.7694 Q663.3654,562.5194 664.3186,562.5194 Q664.7561,562.5194 665.1779,562.3319 Q665.5998,562.1444 666.0373,561.7381 L666.0373,563.66 Z " fill="#000000"/><text fill="#000000" font-family="'Verdana'" font-size="12" lengthAdjust="spacing" textLength="48.3281" x="683.2092" y="563.5643">Mention</text><line style="stroke:#000000;stroke-width:0.5;" x1="608.55" x2="776.1965" y1="574.41" y2="574.41"/><text fill="#000000" font-family="'Verdana'" font-size="12" lengthAdjust="spacing" textLength="83.4492" x="613.55" y="589.5487">+UUID id [PK]</text><text fill="#000000" font-family="'Verdana'" font-size="12" lengthAdjust="spacing" textLength="123.293" x="613.55" y="603.5174">+UUID event_id [FK]</text><text fill="#000000" font-family="'Verdana'" font-size="12" lengthAdjust="spacing" textLength="65.5547" x="613.55" y="617.4862">+String url</text><text fill="#000000" font-family="'Verdana'" font-size="12" lengthAdjust="spacing" textLength="105.5508" x="613.55" y="631.4549">+String language</text><text fill="#000000" font-family="'Verdana'" font-size="12" lengthAdjust="spacing" textLength="73.5762" x="613.55" y="645.4237">+String text</text><text fill="#000000" font-family="'Verdana'" font-size="12" lengthAdjust="spacing" textLength="157.6465" x="613.55" y="659.3924">+Timestamp published_at</text><line style="stroke:#000000;stroke-width:0.5;" x1="608.55" x2="776.1965" y1="666.2225" y2="666.2225"/></g><!--class Source--><g class="entity" data-qualified-name="Source" data-source-line="85" id="ent0009"><rect fill="#FFFFFF" height="87.9063" rx="2.5" ry="2.5" style="stroke:#000000;stroke-width:0.5;" width="112.1602" x="745.3" y="13.99"/><ellipse cx="777.6067" cy="28.99" fill="#C2C2C2" rx="10" ry="10" style="stroke:#181818;stroke-width:1;"/><path d="M779.4349,33.24 Q779.0286,33.4431 778.5755,33.5525 Q778.1224,33.6619 777.638,33.6619 Q775.8567,33.6619 774.9192,32.5056 Q773.9974,31.3338 773.9974,29.1306 Q773.9974,26.9119 774.9192,25.7556 Q775.8567,24.5838 777.638,24.5838 Q778.1224,24.5838 778.5755,24.6931 Q779.0442,24.7869 779.4349,25.0056 L779.4349,26.9275 Q778.9974,26.5213 778.5755,26.3338 Q778.1536,26.1306 777.7161,26.1306 Q776.763,26.1306 776.2786,26.8963 Q775.7942,27.6463 775.7942,29.1306 Q775.7942,30.5994 776.2786,31.3494 Q776.763,32.0994 777.7161,32.0994 Q778.1536,32.0994 778.5755,31.9119 Q778.9974,31.7244 779.4349,31.3181 L779.4349,33.24 Z " fill="#000000"/><text fill="#000000" font-family="'Verdana'" font-size="12" lengthAdjust="spacing" textLength="41.4785" x="794.6749" y="33.1443">Source</text><line style="stroke:#000000;stroke-width:0.5;" x1="746.3" x2="856.4602" y1="43.99" y2="43.99"/><text fill="#000000" font-family="'Verdana'" font-size="12" lengthAdjust="spacing" textLength="96.2695" x="751.3" y="59.1287">+Integer id [PK]</text><text fill="#000000" font-family="'Verdana'" font-size="12" lengthAdjust="spacing" textLength="83.7129" x="751.3" y="73.0974">+String name</text><text fill="#000000" font-family="'Verdana'" font-size="12" lengthAdjust="spacing" textLength="100.1602" x="751.3" y="87.0662">+String base_url</text><line style="stroke:#000000;stroke-width:0.5;" x1="746.3" x2="856.4602" y1="93.8963" y2="93.8963"/></g><!--class EventType--><g class="entity" data-qualified-name="EventType" data-source-line="91" id="ent0010"><rect fill="#FFFFFF" height="101.875" rx="2.5" ry="2.5" style="stroke:#000000;stroke-width:0.5;" width="165.4629" x="499.65" y="7"/><ellipse cx="546.4771" cy="22" fill="#C2C2C2" rx="10" ry="10" style="stroke:#181818;stroke-width:1;"/><path d="M548.3053,26.25 Q547.899,26.4531 547.4459,26.5625 Q546.9928,26.6719 546.5084,26.6719 Q544.7271,26.6719 543.7896,25.5156 Q542.8678,24.3438 542.8678,22.1406 Q542.8678,19.9219 543.7896,18.7656 Q544.7271,17.5938 546.5084,17.5938 Q546.9928,17.5938 547.4459,17.7031 Q547.9146,17.7969 548.3053,18.0156 L548.3053,19.9375 Q547.8678,19.5313 547.4459,19.3438 Q547.024,19.1406 546.5865,19.1406 Q545.6334,19.1406 545.149,19.9063 Q544.6646,20.6563 544.6646,22.1406 Q544.6646,23.6094 545.149,24.3594 Q545.6334,25.1094 546.5865,25.1094 Q547.024,25.1094 547.4459,24.9219 Q547.8678,24.7344 548.3053,24.3281 L548.3053,26.25 Z " fill="#000000"/><text fill="#000000" font-family="'Verdana'" font-size="12" lengthAdjust="spacing" textLength="63.8086" x="565.4771" y="26.1543">EventType</text><line style="stroke:#000000;stroke-width:0.5;" x1="500.65" x2="664.1129" y1="37" y2="37"/><text fill="#000000" font-family="'Verdana'" font-size="12" lengthAdjust="spacing" textLength="96.2695" x="505.65" y="52.1387">+Integer id [PK]</text><text fill="#000000" font-family="'Verdana'" font-size="12" lengthAdjust="spacing" textLength="83.7129" x="505.65" y="66.1074">+String name</text><text fill="#000000" font-family="'Verdana'" font-size="12" lengthAdjust="spacing" textLength="117.9199" x="505.65" y="80.0762">+JSONB name_i18n</text><text fill="#000000" font-family="'Verdana'" font-size="12" lengthAdjust="spacing" textLength="153.4629" x="505.65" y="94.0449">+Float default_radius_km</text><line style="stroke:#000000;stroke-width:0.5;" x1="500.65" x2="664.1129" y1="100.875" y2="100.875"/></g><!--reverse link User to Route--><g class="link" data-entity-1="ent0004" data-entity-2="ent0006" data-link-type="composition" data-source-line="99" id="lnk11"><path codeLine="99" d="M243.94,326.22 C269.44,326.22 285.24,326.22 311.49,326.22" fill="none" id="User-backto-Route" style="stroke:#181818;stroke-width:1;"/><polygon fill="#181818" points="231.94,326.22,237.94,330.22,243.94,326.22,237.94,322.22,231.94,326.22" style="stroke:#181818;stroke-width:1;"/><polygon fill="#000000" points="268.22,334.2044,260.9839,331.8532,260.9839,336.5555,268.22,334.2044" style="stroke:#000000;stroke-width:1;"/><text fill="#000000" font-family="'Verdana'" font-size="12" lengthAdjust="spacing" textLength="32.1621" x="273.22" y="338.3587">plans</text><text fill="#000000" font-family="'Verdana'" font-size="12" lengthAdjust="spacing" textLength="7.6348" x="239.7797" y="323.8457">1</text><text fill="#000000" font-family="'Verdana'" font-size="12" lengthAdjust="spacing" textLength="21.2637" x="282.4103" y="323.9262">0..*</text></g><!--reverse link User to UserLocation--><g class="link" data-entity-1="ent0004" data-entity-2="ent0005" data-link-type="composition" data-source-line="100" id="lnk12"><path codeLine="100" d="M137.38,396.87 C137.38,445.52 137.38,502.54 137.38,551.16" fill="none" id="User-backto-UserLocation" style="stroke:#181818;stroke-width:1;"/><polygon fill="#181818" points="137.38,384.87,133.38,390.87,137.38,396.87,141.38,390.87,137.38,384.87" style="stroke:#181818;stroke-width:1;"/><polygon fill="#000000" points="91.38,465.0044,93.7311,457.7683,89.0289,457.7683,91.38,465.0044" style="stroke:#000000;stroke-width:1;"/><text fill="#000000" font-family="'Verdana'" font-size="12" lengthAdjust="spacing" textLength="36.791" x="100.38" y="465.1587">tracks</text><text fill="#000000" font-family="'Verdana'" font-size="12" lengthAdjust="spacing" textLength="7.6348" x="130.0124" y="403.5489">1</text><text fill="#000000" font-family="'Verdana'" font-size="12" lengthAdjust="spacing" textLength="21.2637" x="114.9872" y="540.6762">0..*</text></g><!--link Route to TransportType--><g class="link" data-entity-1="ent0006" data-entity-2="ent0002" data-link-type="dependency" data-source-line="101" id="lnk13"><path codeLine="101" d="M421.38,398.7 C421.38,445.98 421.38,500.98 421.38,545.16" fill="none" id="Route-to-TransportType" style="stroke:#181818;stroke-width:1;"/><polygon fill="#181818" points="421.38,551.16,425.38,542.16,421.38,546.16,417.38,542.16,421.38,551.16" style="stroke:#181818;stroke-width:1;"/><polygon fill="#000000" points="384.38,471.9144,386.7311,464.6783,382.0289,464.6783,384.38,471.9144" style="stroke:#000000;stroke-width:1;"/><text fill="#000000" font-family="'Verdana'" font-size="12" lengthAdjust="spacing" textLength="27.4922" x="393.38" y="472.0687">uses</text></g><!--reverse link Source to Event--><g class="link" data-entity-1="ent0009" data-entity-2="ent0007" data-link-type="dependency" data-source-line="103" id="lnk15"><path codeLine="103" d="M759.75,108.31 C759.75,134.77 759.75,163.84 759.75,198.38" fill="none" id="Source-backto-Event" style="stroke:#181818;stroke-width:1;"/><polygon fill="#181818" points="759.75,102.31,755.75,111.31,759.75,107.31,763.75,111.31,759.75,102.31" style="stroke:#181818;stroke-width:1;"/><polygon fill="#000000" points="663.75,139.3244,661.3989,146.5604,666.1011,146.5604,663.75,139.3244" style="stroke:#000000;stroke-width:1;"/><text fill="#000000" font-family="'Verdana'" font-size="12" lengthAdjust="spacing" textLength="86.2969" x="672.75" y="147.4787">collected from</text><text fill="#000000" font-family="'Verdana'" font-size="12" lengthAdjust="spacing" textLength="7.6348" x="746.1681" y="120.9909">1</text><text fill="#000000" font-family="'Verdana'" font-size="12" lengthAdjust="spacing" textLength="6" x="757.8742" y="187.9163">*</text></g><!--reverse link EventType to Event--><g class="link" data-entity-1="ent0010" data-entity-2="ent0007" data-link-type="dependency" data-source-line="104" id="lnk17"><path codeLine="104" d="M637.83,115.11 C637.83,140.69 637.83,166.91 637.83,198.65" fill="none" id="EventType-backto-Event" style="stroke:#181818;stroke-width:1;"/><polygon fill="#181818" points="637.83,109.11,633.83,118.11,637.83,114.11,641.83,118.11,637.83,109.11" style="stroke:#181818;stroke-width:1;"/><polygon fill="#000000" points="554.83,142.8644,552.4789,150.1004,557.1811,150.1004,554.83,142.8644" style="stroke:#000000;stroke-width:1;"/><text fill="#000000" font-family="'Verdana'" font-size="12" lengthAdjust="spacing" textLength="73.1016" x="563.83" y="151.0187">classified as</text><text fill="#000000" font-family="'Verdana'" font-size="12" lengthAdjust="spacing" textLength="7.6348" x="637.8532" y="128.0635">1</text><text fill="#000000" font-family="'Verdana'" font-size="12" lengthAdjust="spacing" textLength="6" x="628.1437" y="188.2036">*</text></g><!--reverse link Event to Mention--><g class="link" data-entity-1="ent0007" data-entity-2="ent0008" data-link-type="composition" data-source-line="105" id="lnk18"><path codeLine="105" d="M692.38,466.74 C692.38,497.71 692.38,517.54 692.38,544.2" fill="none" id="Event-backto-Mention" style="stroke:#181818;stroke-width:1;"/><polygon fill="#181818" points="692.38,454.74,688.38,460.74,692.38,466.74,696.38,460.74,692.38,454.74" style="stroke:#181818;stroke-width:1;"/><polygon fill="#000000" points="605.38,496.4544,607.7311,489.2183,603.0289,489.2183,605.38,496.4544" style="stroke:#000000;stroke-width:1;"/><text fill="#000000" font-family="'Verdana'" font-size="12" lengthAdjust="spacing" textLength="77.2676" x="614.38" y="496.6087">described by</text><text fill="#000000" font-family="'Verdana'" font-size="12" lengthAdjust="spacing" textLength="7.6348" x="685.1965" y="473.6879">1</text><text fill="#000000" font-family="'Verdana'" font-size="12" lengthAdjust="spacing" textLength="21.2637" x="670.1172" y="533.6695">0..*</text></g><!--link Event to EventSeverity--><g class="link" data-entity-1="ent0007" data-entity-2="ent0003" data-link-type="dependency" data-source-line="106" id="lnk19"><path codeLine="106" d="M774.41,326.22 C800.72,326.22 823.36,326.22 847.84,326.22" fill="none" id="Event-to-EventSeverity" style="stroke:#181818;stroke-width:1;"/><polygon fill="#181818" points="853.84,326.22,844.84,322.22,848.84,326.22,844.84,330.22,853.84,326.22" style="stroke:#181818;stroke-width:1;"/><polygon fill="#000000" points="788.63,334.2044,781.3939,331.8532,781.3939,336.5555,788.63,334.2044" style="stroke:#000000;stroke-width:1;"/><text fill="#000000" font-family="'Verdana'" font-size="12" lengthAdjust="spacing" textLength="53.5605" x="793.63" y="338.3587">has level</text></g><!--link Route to Event--><?plantuml-src bLRRRXit47tNLn1wQPlMWPqMHQe70x9g9seKsP3b5aKGBEXTMYAyDv1S9svHm7PQj81Jv0kAFlG3wlXIEx7i_0BtZth8tPLsDtQB0BgGPuQSmvdX3EKs3sCgQ41SdqhPLahmpKInhXk5w_m7HkORSghYyv2ftPYHIAXnL184KHYvOn45Z2YHi994ZgaNFUFXY6nHNvOb7jkYYQzMeb3rAHOslsN2eo5jtgnZoIpSQpG-8lelVQpFzAM-I7_L5nWVOJOX-ZezIFVnVQ7VfOT4Ju3-eq_J5oJz7Sfd5hXA3w0-qHT4lzFNH9zWrHusETVNkUpIoF21YNGFo8L-cw4bNc7aCSbYSh_i7K73RGD-DMz9_cdtlGARKn0zC8JJbvWVwZT4lxPJCqn_DfO9b2xJLx2QxiFkBtNAr_guPAbZGhL4tUsHY9BGwqH-9CYpCLTb_ow7IV1_Ejb6aV2Oo1GsVQoeR_AUlC40a-OG9vOnSc68d6WIAaa58Jys2Ecq1_ZzhjrxrEq_m6Yfs_c-qrl6Q6rZgTVjECD1kx--jZeO0bhfTHyy73P-AWmixp04dkqmmTMkDL11h85kVsLryBWzxAxshQ51FpFK6NI7tKwxvmmV3fRRTbERuQIv8Pcmcvc1tUDJih7H_PfmZpnPU_JK0kku1qZQ12eXihECiO1olmp4Wcqn8PZd-95B_KnvAOfyHaDp0GHpVBx3h5JnAAnnwUNmb5C1tCRD0eQPOz2L77t0SFsKsFruBUAX-enyyVczBpyXRW9YeNBYI79hswYk-15LHCOCbBU3iSM6F61IqI0cWhacufv3LOdf849Li1JjwCEuLVD25JF759CAUH9JLUU3FnvG1K8UGrQgHB1RDQWGV8VwbGXmwL1N8G2bqzWyccNKRQVfXegDa2GoIeJBAaSgHEO85K6H9S-LIHqViZASx-JJS9JGKNQGRzPN-qj4SULZfuNxOGb4cN45ZqtawYAP104LkpEuUZTaFgYwbyNSXHOJLPW7CLm4xp5QSwqBI6MvK1KaiNUpW3sFkM2o41H-olGT5yMed5QFmQR8_Npydwd5p25lydSYAdUouk0SKuX9ZMoSRFfSZkl9lcwZP4bbmvnJSPWRAaMzIcnIoHn3gfPqqrevdNt0tbdapNGMzkmovvtI4TJZYSIjDdRHXVv67xj2-pWZQ4IcaPtZUuN6T4RmTuHEkOVVOzji3Focw4G6HpVz3RrhBvEPzeHM1lKJksYY9wRDtjv66xR0DXUQvCwSuAEncYFD-RjtxpJp4j8YCS8aoM9P4Q-5SAfNgOOjKpZSRQEVhSzq5slLfMNAZr5gP5UxYNtcaXXwna0UpXPn8zzdBZAORE7T0lMRj6SnQcNl8xx5iOBAcVxxf8iqRkMtTnChDdUdAt9NBDRkQukCiQsFgM-u8tH_mEt7yAdn-GJ1G4psyJvufS_Jb-KemUbNU3FipwA4aDZ7Xea6NaV5umCgRu6Sc82TOc0V5_h8ldRAS-XTwzVfeNty826EIPu6zZbJEF_9c7iU2v_caRMdQVmB?></g></svg>