<?plantuml 1.2026.2?><svg xmlns="http://www.w3.org/2000/svg" xmlns:xlink="http://www.w3.org/1999/xlink" contentStyleType="text/css" data-diagram-type="DESCRIPTION" height="769px" preserveAspectRatio="none" style="width:805px;height:769px;background:#FFFFFF;" version="1.1" viewBox="0 0 805 769" width="805px" zoomAndPan="magnify"><defs/><g><!--entity GDELT--><g class="entity" data-qualified-name="GDELT" data-source-line="25" id="ent0002"><rect fill="#FFFFFF" height="43.9688" rx="2.5" ry="2.5" style="stroke:#000000;stroke-width:0.5;" width="157.1055" x="372.1" y="7"/><rect fill="#FFFFFF" height="10" style="stroke:#000000;stroke-width:0.5;" width="15" x="509.2055" y="12"/><rect fill="#FFFFFF" height="2" style="stroke:#000000;stroke-width:0.5;" width="4" x="507.2055" y="14"/><rect fill="#FFFFFF" height="2" style="stroke:#000000;stroke-width:0.5;" width="4" x="507.2055" y="18"/><text fill="#000000" font-family="'Verdana'" font-size="12" lengthAdjust="spacing" textLength="117.1055" x="387.1" y="38.1387">&#1048;&#1089;&#1090;&#1086;&#1095;&#1085;&#1080;&#1082; &#1089;&#1086;&#1073;&#1099;&#1090;&#1080;&#1081;</text></g><!--entity Fetcher--><g class="entity" data-qualified-name="Fetcher" data-source-line="26" id="ent0003"><rect fill="#FFFFFF" height="43.9688" rx="2.5" ry="2.5" style="stroke:#000000;stroke-width:0.5;" width="179.6934" x="360.8" y="145.97"/><rect fill="#FFFFFF" height="10" style="stroke:#000000;stroke-width:0.5;" width="15" x="520.4934" y="150.97"/><rect fill="#FFFFFF" height="2" style="stroke:#000000;stroke-width:0.5;" width="4" x="518.4934" y="152.97"/><rect fill="#FFFFFF" height="2" style="stroke:#000000;stroke-width:0.5;" width="4" x="518.4934" y="156.97"/><text fill="#000000" font-family="'Verdana'" font-size="12" lengthAdjust="spacing" textLength="139.6934" x="375.8" y="177.1087">&#1052;&#1086;&#1076;&#1091;&#1083;&#1100; &#1089;&#1073;&#1086;&#1088;&#1072; &#1076;&#1072;&#1085;&#1085;&#1099;&#1093;</text></g><!--entity SDB--><g class="entity" data-qualified-name="SDB" data-source-line="27" id="ent0004"><path d="M295.86,358.91 C295.86,348.91 367.6559,348.91 367.6559,348.91 C367.6559,348.91 439.4518,348.91 439.4518,358.91 L439.4518,381.8787 C439.4518,391.8787 367.6559,391.8787 367.6559,391.8787 C367.6559,391.8787 295.86,391.8787 295.86,381.8787 L295.86,358.91" fill="#FFFFFF" style="stroke:#000000;stroke-width:0.5;"/><path d="M295.86,358.91 C295.86,368.91 367.6559,368.91 367.6559,368.91 C367.6559,368.91 439.4518,368.91 439.4518,358.91" fill="none" style="stroke:#000000;stroke-width:0.5;"/><text fill="#000000" font-family="'Verdana'" font-size="12" lengthAdjust="spacing" textLength="123.5918" x="305.86" y="384.0487">&#1055;&#1088;&#1086;&#1084;&#1077;&#1078;&#1091;&#1090;&#1086;&#1095;&#1085;&#1072;&#1103; &#1041;&#1044;</text></g><!--entity RMQ--><g class="entity" data-qualified-name="RMQ" data-source-line="30" id="ent0005"><path d="M463.2,284.94 L602.1121,284.94 C607.1121,284.94 607.1121,296.9244 607.1121,296.9244 C607.1121,296.9244 607.1121,308.9088 602.1121,308.9088 L463.2,308.9088 C458.2,308.9088 458.2,296.9244 458.2,296.9244 C458.2,296.9244 458.2,284.94 463.2,284.94" fill="#FFFFFF" style="stroke:#000000;stroke-width:0.5;"/><path d="M602.1121,284.94 C597.1121,284.94 597.1121,296.9244 597.1121,296.9244 C597.1121,308.9088 602.1121,308.9088 602.1121,308.9088" fill="none" style="stroke:#000000;stroke-width:0.5;"/><text fill="#000000" font-family="'Verdana'" font-size="12" lengthAdjust="spacing" textLength="128.9121" x="463.2" y="301.0787">&#1054;&#1095;&#1077;&#1088;&#1077;&#1076;&#1100; &#1089;&#1086;&#1086;&#1073;&#1097;&#1077;&#1085;&#1080;&#1081;</text></g><!--entity Analyzer--><g class="entity" data-qualified-name="Analyzer" data-source-line="31" id="ent0006"><rect fill="#FFFFFF" height="43.9688" rx="2.5" ry="2.5" style="stroke:#000000;stroke-width:0.5;" width="143.4063" x="367.95" y="431.87"/><rect fill="#FFFFFF" height="10" style="stroke:#000000;stroke-width:0.5;" width="15" x="491.3563" y="436.87"/><rect fill="#FFFFFF" height="2" style="stroke:#000000;stroke-width:0.5;" width="4" x="489.3563" y="438.87"/><rect fill="#FFFFFF" height="2" style="stroke:#000000;stroke-width:0.5;" width="4" x="489.3563" y="442.87"/><text fill="#000000" font-family="'Verdana'" font-size="12" lengthAdjust="spacing" textLength="103.4063" x="382.95" y="463.0087">&#1052;&#1086;&#1076;&#1091;&#1083;&#1100; &#1072;&#1085;&#1072;&#1083;&#1080;&#1079;&#1072;</text></g><!--entity Ollama--><g class="entity" data-qualified-name="Ollama" data-source-line="32" id="ent0007"><rect fill="#FFFFFF" height="43.9688" rx="2.5" ry="2.5" style="stroke:#000000;stroke-width:0.5;" width="135.666" x="663.82" y="431.87"/><rect fill="#FFFFFF" height="10" style="stroke:#000000;stroke-width:0.5;" width="15" x="779.486" y="436.87"/><rect fill="#FFFFFF" height="2" style="stroke:#000000;stroke-width:0.5;" width="4" x="777.486" y="438.87"/><rect fill="#FFFFFF" height="2" style="stroke:#000000;stroke-width:0.5;" width="4" x="777.486" y="442.87"/><text fill="#000000" font-family="'Verdana'" font-size="12" lengthAdjust="spacing" textLength="95.666" x="678.82" y="463.0087">&#1051;&#1086;&#1082;&#1072;&#1083;&#1100;&#1085;&#1072;&#1103; LLM</text></g><!--entity Translator--><g class="entity" data-qualified-name="Translator" data-source-line="33" id="ent0008"><rect fill="#FFFFFF" height="43.9688" rx="2.5" ry="2.5" style="stroke:#000000;stroke-width:0.5;" width="222.8652" x="398.22" y="570.84"/><rect fill="#FFFFFF" height="10" style="stroke:#000000;stroke-width:0.5;" width="15" x="601.0852" y="575.84"/><rect fill="#FFFFFF" height="2" style="stroke:#000000;stroke-width:0.5;" width="4" x="599.0852" y="577.84"/><rect fill="#FFFFFF" height="2" style="stroke:#000000;stroke-width:0.5;" width="4" x="599.0852" y="581.84"/><text fill="#000000" font-family="'Verdana'" font-size="12" lengthAdjust="spacing" textLength="182.8652" x="413.22" y="601.9787">&#1051;&#1086;&#1082;&#1072;&#1083;&#1100;&#1085;&#1072;&#1103; &#1084;&#1086;&#1076;&#1077;&#1083;&#1100; &#1087;&#1077;&#1088;&#1077;&#1074;&#1086;&#1076;&#1072;</text></g><!--entity Core--><g class="entity" data-qualified-name="Core" data-source-line="36" id="ent0009"><rect fill="#FFFFFF" height="43.9688" rx="2.5" ry="2.5" style="stroke:#000000;stroke-width:0.5;" width="229.9316" x="58.69" y="570.84"/><rect fill="#FFFFFF" height="10" style="stroke:#000000;stroke-width:0.5;" width="15" x="268.6216" y="575.84"/><rect fill="#FFFFFF" height="2" style="stroke:#000000;stroke-width:0.5;" width="4" x="266.6216" y="577.84"/><rect fill="#FFFFFF" height="2" style="stroke:#000000;stroke-width:0.5;" width="4" x="266.6216" y="581.84"/><text fill="#000000" font-family="'Verdana'" font-size="12" lengthAdjust="spacing" textLength="189.9316" x="73.69" y="601.9787">&#1057;&#1077;&#1088;&#1074;&#1077;&#1088;&#1085;&#1072;&#1103; &#1095;&#1072;&#1089;&#1090;&#1100; &#1087;&#1088;&#1080;&#1083;&#1086;&#1078;&#1077;&#1085;&#1080;&#1103;</text></g><!--entity CDB--><g class="entity" data-qualified-name="CDB" data-source-line="37" id="ent0010"><path d="M122.58,719.81 C122.58,709.81 173.6513,709.81 173.6513,709.81 C173.6513,709.81 224.7226,709.81 224.7226,719.81 L224.7226,742.7788 C224.7226,752.7788 173.6513,752.7788 173.6513,752.7788 C173.6513,752.7788 122.58,752.7788 122.58,742.7788 L122.58,719.81" fill="#FFFFFF" style="stroke:#000000;stroke-width:0.5;"/><path d="M122.58,719.81 C122.58,729.81 173.6513,729.81 173.6513,729.81 C173.6513,729.81 224.7226,729.81 224.7226,719.81" fill="none" style="stroke:#000000;stroke-width:0.5;"/><text fill="#000000" font-family="'Verdana'" font-size="12" lengthAdjust="spacing" textLength="82.1426" x="132.58" y="744.9487">&#1054;&#1089;&#1085;&#1086;&#1074;&#1085;&#1072;&#1103; &#1041;&#1044;</text></g><!--entity Web--><g class="entity" data-qualified-name="Web" data-source-line="38" id="ent0011"><rect fill="#FFFFFF" height="43.9688" rx="2.5" ry="2.5" style="stroke:#000000;stroke-width:0.5;" width="231.3027" x="7" y="431.87"/><rect fill="#FFFFFF" height="10" style="stroke:#000000;stroke-width:0.5;" width="15" x="218.3027" y="436.87"/><rect fill="#FFFFFF" height="2" style="stroke:#000000;stroke-width:0.5;" width="4" x="216.3027" y="438.87"/><rect fill="#FFFFFF" height="2" style="stroke:#000000;stroke-width:0.5;" width="4" x="216.3027" y="442.87"/><text fill="#000000" font-family="'Verdana'" font-size="12" lengthAdjust="spacing" textLength="191.3027" x="22" y="463.0087">&#1055;&#1086;&#1083;&#1100;&#1079;&#1086;&#1074;&#1072;&#1090;&#1077;&#1083;&#1100;&#1089;&#1082;&#1080;&#1081; &#1080;&#1085;&#1090;&#1077;&#1088;&#1092;&#1077;&#1081;&#1089;</text></g><!--link GDELT to Fetcher--><g class="link" data-entity-1="ent0002" data-entity-2="ent0003" data-link-type="dependency" data-source-line="43" id="lnk12"><path d="M450.65,51.38 C450.65,77.12 450.65,114.04 450.65,139.7" fill="none" id="GDELT-to-Fetcher" style="stroke:#181818;stroke-width:1;"/><polygon fill="#181818" points="450.65,145.7,454.65,136.7,450.65,140.7,446.65,136.7,450.65,145.7" style="stroke:#181818;stroke-width:1;"/><text fill="#000000" font-family="'Verdana'" font-size="12" lengthAdjust="spacing" textLength="74.9531" x="451.65" y="103.1087">CSV-&#1072;&#1088;&#1093;&#1080;&#1074;&#1099;</text></g><!--link Fetcher to SDB--><g class="link" data-entity-1="ent0003" data-entity-2="ent0004" data-link-type="dependency" data-source-line="44" id="lnk13"><path d="M391.82,190.33 C374.49,199.7 357.53,212.6 347.65,229.94 C326.21,267.55 341.5013,314.3459 354.5113,343.0259" fill="none" id="Fetcher-to-SDB" style="stroke:#181818;stroke-width:1;"/><polygon fill="#181818" points="356.99,348.49,356.9147,338.6414,354.9245,343.9366,349.6293,341.9463,356.99,348.49" style="stroke:#181818;stroke-width:1;"/><text fill="#000000" font-family="'Verdana'" font-size="12" lengthAdjust="spacing" textLength="127.7813" x="348.65" y="242.0787">&#1057;&#1086;&#1093;&#1088;&#1072;&#1085;&#1077;&#1085;&#1080;&#1077; &#1076;&#1072;&#1085;&#1085;&#1099;&#1093;</text></g><!--link Fetcher to RMQ--><g class="link" data-entity-1="ent0003" data-entity-2="ent0005" data-link-type="dependency" data-source-line="45" id="lnk14"><path d="M464.38,190.2 C481.88,217.31 508.2743,258.1801 522.0143,279.4501" fill="none" id="Fetcher-to-RMQ" style="stroke:#181818;stroke-width:1;"/><polygon fill="#181818" points="525.27,284.49,523.7464,274.7597,522.5569,280.2901,517.0266,279.1006,525.27,284.49" style="stroke:#181818;stroke-width:1;"/><text fill="#000000" font-family="'Verdana'" font-size="12" lengthAdjust="spacing" textLength="69.9961" x="500" y="242.0787">ID &#1089;&#1086;&#1073;&#1099;&#1090;&#1080;&#1081;</text></g><!--link RMQ to Analyzer--><g class="link" data-entity-1="ent0005" data-entity-2="ent0006" data-link-type="dependency" data-source-line="48" id="lnk15"><path d="M525.81,309.31 C510.33,335.1 475.4972,393.1352 455.5272,426.4152" fill="none" id="RMQ-to-Analyzer" style="stroke:#181818;stroke-width:1;"/><polygon fill="#181818" points="452.44,431.56,460.5007,425.9009,455.0127,427.2726,453.6409,421.7846,452.44,431.56" style="stroke:#181818;stroke-width:1;"/><text fill="#000000" font-family="'Verdana'" font-size="12" lengthAdjust="spacing" textLength="85.2305" x="500.92" y="375.0287">&#1055;&#1086;&#1083;&#1091;&#1095;&#1077;&#1085;&#1080;&#1077; ID</text></g><!--reverse link SDB to Analyzer--><g class="link" data-entity-1="ent0004" data-entity-2="ent0006" data-link-type="dependency" data-source-line="49" id="lnk17"><path d="M390.1657,396.8638 C400.7557,408.8338 410.02,419.32 420.67,431.38" fill="none" id="SDB-backto-Analyzer" style="stroke:#181818;stroke-width:1;"/><polygon fill="#181818" points="386.19,392.37,389.1577,401.7611,389.5031,396.1148,395.1494,396.4602,386.19,392.37" style="stroke:#181818;stroke-width:1;"/></g><!--link Analyzer to Translator--><g class="link" data-entity-1="ent0006" data-entity-2="ent0008" data-link-type="dependency" data-source-line="50" id="lnk18"><path d="M450.59,476.26 C463.74,501.99 482.9394,539.5674 496.0594,565.2374" fill="none" id="Analyzer-to-Translator" style="stroke:#181818;stroke-width:1;"/><polygon fill="#181818" points="498.79,570.58,498.2558,560.7456,496.5145,566.1278,491.1323,564.3865,498.79,570.58" style="stroke:#181818;stroke-width:1;"/><text fill="#000000" font-family="'Verdana'" font-size="12" lengthAdjust="spacing" textLength="95.9707" x="477.75" y="527.9787">&#1055;&#1077;&#1088;&#1077;&#1074;&#1086;&#1076; &#1087;&#1086;&#1083;&#1077;&#1081;</text></g><!--link Analyzer to Ollama--><g class="link" data-entity-1="ent0006" data-entity-2="ent0007" data-link-type="dependency" data-source-line="51" id="lnk19"><path d="M511.83,453.86 C558.27,453.86 612.24,453.86 657.81,453.86" fill="none" id="Analyzer-to-Ollama" style="stroke:#181818;stroke-width:1;"/><polygon fill="#181818" points="663.81,453.86,654.81,449.86,658.81,453.86,654.81,457.86,663.81,453.86" style="stroke:#181818;stroke-width:1;"/><text fill="#000000" font-family="'Verdana'" font-size="12" lengthAdjust="spacing" textLength="91.4473" x="542.09" y="447.9987">&#1048;&#1085;&#1092;&#1077;&#1088;&#1077;&#1085;&#1089; LLM</text></g><!--link Analyzer to Core--><g class="link" data-entity-1="ent0006" data-entity-2="ent0009" data-link-type="dependency" data-source-line="52" id="lnk20"><path d="M389.48,476.34 C364.08,487.55 332.93,501.82 305.65,515.84 C272.14,533.07 240.1772,551.5768 213.8672,567.3368" fill="none" id="Analyzer-to-Core" style="stroke:#181818;stroke-width:1;"/><polygon fill="#181818" points="208.72,570.42,218.4963,569.2266,213.0093,567.8506,214.3853,562.3637,208.72,570.42" style="stroke:#181818;stroke-width:1;"/><text fill="#000000" font-family="'Verdana'" font-size="12" lengthAdjust="spacing" textLength="150.0879" x="306.65" y="527.9787">&#1054;&#1073;&#1088;&#1072;&#1073;&#1086;&#1090;&#1072;&#1085;&#1085;&#1099;&#1077; &#1089;&#1086;&#1073;&#1099;&#1090;&#1080;&#1103;</text></g><!--link Core to CDB--><g class="link" data-entity-1="ent0009" data-entity-2="ent0010" data-link-type="dependency" data-source-line="55" id="lnk21"><path d="M173.65,615.15 C173.65,640.94 173.65,678.05 173.65,703.57" fill="none" id="Core-to-CDB" style="stroke:#181818;stroke-width:1;"/><polygon fill="#181818" points="173.65,709.57,177.65,700.57,173.65,704.57,169.65,700.57,173.65,709.57" style="stroke:#181818;stroke-width:1;"/><text fill="#000000" font-family="'Verdana'" font-size="12" lengthAdjust="spacing" textLength="139.0723" x="174.65" y="666.9487">&#1055;&#1086;&#1089;&#1090;&#1086;&#1103;&#1085;&#1085;&#1086;&#1077; &#1093;&#1088;&#1072;&#1085;&#1077;&#1085;&#1080;&#1077;</text></g><!--link Web to Core--><g class="link" data-entity-1="ent0011" data-entity-2="ent0009" data-link-type="dependency" data-source-line="56" id="lnk22"><path d="M114.17,476.26 C109.29,491.92 105.42,513.39 112.65,530.84 C119.07,546.34 127.0161,556.0201 139.0261,566.4301" fill="none" id="Web-to-Core" style="stroke:#181818;stroke-width:1;"/><polygon fill="#181818" points="143.56,570.36,139.3791,561.4426,139.7818,567.0851,134.1393,567.4878,143.56,570.36" style="stroke:#181818;stroke-width:1;"/><text fill="#000000" font-family="'Verdana'" font-size="12" lengthAdjust="spacing" textLength="103.1719" x="113.65" y="527.9787">REST API / &#1050;&#1072;&#1088;&#1090;&#1072;</text></g><?plantuml-src XLJ9RXD15BpFLxHo0IJCAY740IdOW2A59JZ08UBGiJknbV5q68_5SegpA489CY0a8fOWX1179YQBdM3p2zr_HBtNddXY73Xuv7dzbgfwDHtfUH5fCQsZI5T4iHogGbJMWLUTAmVpCfI8gHbPywD9zJGQzSkpGKK5aIZWeS9KLa5NvdM0Q3vwvYjHg_WNFE-4C9zCREjsqIwOhccRVTCIPjiSs8QmB_7MDHtyVl6pBSnlisDNKR1eMgdM5HteGYdK5IMYiAPI9zMIBEedvM1Mp4Y_glu6VKC7qMs9mf47AYpAG8uCpycNdojntY7-3Amjqx5B0De2b1t0NSVx6Y7SubVwQvS9VSB6D6qTu5S4OGUFhcaImmEa_yAlWp25G3H6dD_QLDioiVc9WJ7Ia9X2bqq4lIOBSxEXhWN5hFPrA9wKob6QQav6SbfMrV_o9cggTapIqB4wBAhGPKtxA1isyXyvRjnV2QJmLzCa6Q7kAWHeWZnK4gG2h58dSMm3IhLiuxImgopMbbtZ1BD7Sc4tUxGRk-uyiu06-_JaQbhLZi0-ccYpTyHAWIwggfeNbywbWg4CvYXu-HoZs-X1M2K8ph4jwhQ5s88uQTxGGBl2fx314bkxoKjUF-LD3TPJAUDdPxGV2LaLDtFNnoUH-X4dso03WnrEW47WYnZ5u65NEF-6YWebV6x5dkvYX5tQPM_j0a8oBoOhlZPlHwWgdxl6X3Pnv3JQ9i70vm2bFvbS349VtDanX1xJ7Z7mQ1ScHRHUK1uLyiXxjoO6Q36Jc9QDLSJCPZIG_hFde3DbFY1pduxf2sFqu-EtEEcExykA79e2rkZllil-_fiST1CciTAgBoCTiW3Vs3cT7j8Tak3-68X_mjlkiNlymesR_7I3-Mwgzsp7jmG9kUlwsWQFpkfGfVUq2QKwt7XWErbiPyfynX4ns-EKEBbkKBJFiFWcMcJ7BUEeRUiyvQ6Q9cQPJ4O0vnlpmxmp6_HAqVDdAEZichQInxP3rjN4KEAAoEOVP32N38rFqQvvoH6bmK58GREkNHdKCDquNGCBe6OiD-1x0dO1m5xrxN2q1zLHVU8E6kpKMIBdzSQEvRp3X8olPg8-okyitX1q_G8azwtX1gJC8_ZUfYkxdQe9oxCbck8CIKKRwBlSA-pOEbdsw0po02LkWZwfHgjOJ02vg-bG6TiWPIwU6UfIhklskkmc9nxtvq6EEMHANPlaDimOM9W7owJ1tRkUdnIZTyV4MM7Uim60qFi3?></g></svg>