<?plantuml 1.2026.2?><svg xmlns="http://www.w3.org/2000/svg" xmlns:xlink="http://www.w3.org/1999/xlink" contentStyleType="text/css" data-diagram-type="DESCRIPTION" height="769px" preserveAspectRatio="none" style="width:949px;height:769px;background:#FFFFFF;" version="1.1" viewBox="0 0 949 769" width="949px" zoomAndPan="magnify"><defs/><g><!--entity GDELT--><g class="entity" data-qualified-name="GDELT" data-source-line="25" id="ent0002"><rect fill="#FFFFFF" height="43.9688" rx="2.5" ry="2.5" style="stroke:#000000;stroke-width:0.5;" width="157.1055" x="379.1" y="7"/><rect fill="#FFFFFF" height="10" style="stroke:#000000;stroke-width:0.5;" width="15" x="516.2055" y="12"/><rect fill="#FFFFFF" height="2" style="stroke:#000000;stroke-width:0.5;" width="4" x="514.2055" y="14"/><rect fill="#FFFFFF" height="2" style="stroke:#000000;stroke-width:0.5;" width="4" x="514.2055" y="18"/><text fill="#000000" font-family="'Verdana'" font-size="12" lengthAdjust="spacing" textLength="117.1055" x="394.1" y="38.1387">&#1048;&#1089;&#1090;&#1086;&#1095;&#1085;&#1080;&#1082; &#1089;&#1086;&#1073;&#1099;&#1090;&#1080;&#1081;</text></g><!--entity Fetcher--><g class="entity" data-qualified-name="Fetcher" data-source-line="26" id="ent0003"><rect fill="#FFFFFF" height="43.9688" rx="2.5" ry="2.5" style="stroke:#000000;stroke-width:0.5;" width="179.6934" x="367.8" y="145.97"/><rect fill="#FFFFFF" height="10" style="stroke:#000000;stroke-width:0.5;" width="15" x="527.4934" y="150.97"/><rect fill="#FFFFFF" height="2" style="stroke:#000000;stroke-width:0.5;" width="4" x="525.4934" y="152.97"/><rect fill="#FFFFFF" height="2" style="stroke:#000000;stroke-width:0.5;" width="4" x="525.4934" y="156.97"/><text fill="#000000" font-family="'Verdana'" font-size="12" lengthAdjust="spacing" textLength="139.6934" x="382.8" y="177.1087">&#1052;&#1086;&#1076;&#1091;&#1083;&#1100; &#1089;&#1073;&#1086;&#1088;&#1072; &#1076;&#1072;&#1085;&#1085;&#1099;&#1093;</text></g><!--entity SDB--><g class="entity" data-qualified-name="SDB" data-source-line="27" id="ent0004"><path d="M302.86,358.91 C302.86,348.91 374.6559,348.91 374.6559,348.91 C374.6559,348.91 446.4518,348.91 446.4518,358.91 L446.4518,381.8787 C446.4518,391.8787 374.6559,391.8787 374.6559,391.8787 C374.6559,391.8787 302.86,391.8787 302.86,381.8787 L302.86,358.91" fill="#FFFFFF" style="stroke:#000000;stroke-width:0.5;"/><path d="M302.86,358.91 C302.86,368.91 374.6559,368.91 374.6559,368.91 C374.6559,368.91 446.4518,368.91 446.4518,358.91" fill="none" style="stroke:#000000;stroke-width:0.5;"/><text fill="#000000" font-family="'Verdana'" font-size="12" lengthAdjust="spacing" textLength="123.5918" x="312.86" y="384.0487">&#1055;&#1088;&#1086;&#1084;&#1077;&#1078;&#1091;&#1090;&#1086;&#1095;&#1085;&#1072;&#1103; &#1041;&#1044;</text></g><!--entity RMQ--><g class="entity" data-qualified-name="RMQ" data-source-line="30" id="ent0005"><path d="M470.2,284.94 L609.1121,284.94 C614.1121,284.94 614.1121,296.9244 614.1121,296.9244 C614.1121,296.9244 614.1121,308.9088 609.1121,308.9088 L470.2,308.9088 C465.2,308.9088 465.2,296.9244 465.2,296.9244 C465.2,296.9244 465.2,284.94 470.2,284.94" fill="#FFFFFF" style="stroke:#000000;stroke-width:0.5;"/><path d="M609.1121,284.94 C604.1121,284.94 604.1121,296.9244 604.1121,296.9244 C604.1121,308.9088 609.1121,308.9088 609.1121,308.9088" fill="none" style="stroke:#000000;stroke-width:0.5;"/><text fill="#000000" font-family="'Verdana'" font-size="12" lengthAdjust="spacing" textLength="128.9121" x="470.2" y="301.0787">&#1054;&#1095;&#1077;&#1088;&#1077;&#1076;&#1100; &#1089;&#1086;&#1086;&#1073;&#1097;&#1077;&#1085;&#1080;&#1081;</text></g><!--entity Analyzer--><g class="entity" data-qualified-name="Analyzer" data-source-line="31" id="ent0006"><rect fill="#FFFFFF" height="43.9688" rx="2.5" ry="2.5" style="stroke:#000000;stroke-width:0.5;" width="143.4063" x="374.95" y="431.87"/><rect fill="#FFFFFF" height="10" style="stroke:#000000;stroke-width:0.5;" width="15" x="498.3563" y="436.87"/><rect fill="#FFFFFF" height="2" style="stroke:#000000;stroke-width:0.5;" width="4" x="496.3563" y="438.87"/><rect fill="#FFFFFF" height="2" style="stroke:#000000;stroke-width:0.5;" width="4" x="496.3563" y="442.87"/><text fill="#000000" font-family="'Verdana'" font-size="12" lengthAdjust="spacing" textLength="103.4063" x="389.95" y="463.0087">&#1052;&#1086;&#1076;&#1091;&#1083;&#1100; &#1072;&#1085;&#1072;&#1083;&#1080;&#1079;&#1072;</text></g><!--entity Ollama--><g class="entity" data-qualified-name="Ollama" data-source-line="32" id="ent0007"><rect fill="#FFFFFF" height="43.9688" rx="2.5" ry="2.5" style="stroke:#000000;stroke-width:0.5;" width="135.666" x="743.82" y="570.84"/><rect fill="#FFFFFF" height="10" style="stroke:#000000;stroke-width:0.5;" width="15" x="859.486" y="575.84"/><rect fill="#FFFFFF" height="2" style="stroke:#000000;stroke-width:0.5;" width="4" x="857.486" y="577.84"/><rect fill="#FFFFFF" height="2" style="stroke:#000000;stroke-width:0.5;" width="4" x="857.486" y="581.84"/><text fill="#000000" font-family="'Verdana'" font-size="12" lengthAdjust="spacing" textLength="95.666" x="758.82" y="601.9787">&#1051;&#1086;&#1082;&#1072;&#1083;&#1100;&#1085;&#1072;&#1103; LLM</text></g><!--entity Translator--><g class="entity" data-qualified-name="Translator" data-source-line="33" id="ent0008"><rect fill="#FFFFFF" height="43.9688" rx="2.5" ry="2.5" style="stroke:#000000;stroke-width:0.5;" width="222.8652" x="398.22" y="570.84"/><rect fill="#FFFFFF" height="10" style="stroke:#000000;stroke-width:0.5;" width="15" x="601.0852" y="575.84"/><rect fill="#FFFFFF" height="2" style="stroke:#000000;stroke-width:0.5;" width="4" x="599.0852" y="577.84"/><rect fill="#FFFFFF" height="2" style="stroke:#000000;stroke-width:0.5;" width="4" x="599.0852" y="581.84"/><text fill="#000000" font-family="'Verdana'" font-size="12" lengthAdjust="spacing" textLength="182.8652" x="413.22" y="601.9787">&#1051;&#1086;&#1082;&#1072;&#1083;&#1100;&#1085;&#1072;&#1103; &#1084;&#1086;&#1076;&#1077;&#1083;&#1100; &#1087;&#1077;&#1088;&#1077;&#1074;&#1086;&#1076;&#1072;</text></g><!--entity Summarizer--><g class="entity" data-qualified-name="Summarizer" data-source-line="34" id="ent0009"><rect fill="#FFFFFF" height="43.9688" rx="2.5" ry="2.5" style="stroke:#000000;stroke-width:0.5;" width="262.8789" x="680.21" y="431.87"/><rect fill="#FFFFFF" height="10" style="stroke:#000000;stroke-width:0.5;" width="15" x="923.0889" y="436.87"/><rect fill="#FFFFFF" height="2" style="stroke:#000000;stroke-width:0.5;" width="4" x="921.0889" y="438.87"/><rect fill="#FFFFFF" height="2" style="stroke:#000000;stroke-width:0.5;" width="4" x="921.0889" y="442.87"/><text fill="#000000" font-family="'Verdana'" font-size="12" lengthAdjust="spacing" textLength="222.8789" x="695.21" y="463.0087">&#1051;&#1086;&#1082;&#1072;&#1083;&#1100;&#1085;&#1072;&#1103; &#1084;&#1086;&#1076;&#1077;&#1083;&#1100; &#1088;&#1077;&#1092;&#1077;&#1088;&#1080;&#1088;&#1086;&#1074;&#1072;&#1085;&#1080;&#1103;</text></g><!--entity Core--><g class="entity" data-qualified-name="Core" data-source-line="37" id="ent0010"><rect fill="#FFFFFF" height="43.9688" rx="2.5" ry="2.5" style="stroke:#000000;stroke-width:0.5;" width="229.9316" x="58.69" y="570.84"/><rect fill="#FFFFFF" height="10" style="stroke:#000000;stroke-width:0.5;" width="15" x="268.6216" y="575.84"/><rect fill="#FFFFFF" height="2" style="stroke:#000000;stroke-width:0.5;" width="4" x="266.6216" y="577.84"/><rect fill="#FFFFFF" height="2" style="stroke:#000000;stroke-width:0.5;" width="4" x="266.6216" y="581.84"/><text fill="#000000" font-family="'Verdana'" font-size="12" lengthAdjust="spacing" textLength="189.9316" x="73.69" y="601.9787">&#1057;&#1077;&#1088;&#1074;&#1077;&#1088;&#1085;&#1072;&#1103; &#1095;&#1072;&#1089;&#1090;&#1100; &#1087;&#1088;&#1080;&#1083;&#1086;&#1078;&#1077;&#1085;&#1080;&#1103;</text></g><!--entity CDB--><g class="entity" data-qualified-name="CDB" data-source-line="38" id="ent0011"><path d="M122.58,719.81 C122.58,709.81 173.6513,709.81 173.6513,709.81 C173.6513,709.81 224.7226,709.81 224.7226,719.81 L224.7226,742.7788 C224.7226,752.7788 173.6513,752.7788 173.6513,752.7788 C173.6513,752.7788 122.58,752.7788 122.58,742.7788 L122.58,719.81" fill="#FFFFFF" style="stroke:#000000;stroke-width:0.5;"/><path d="M122.58,719.81 C122.58,729.81 173.6513,729.81 173.6513,729.81 C173.6513,729.81 224.7226,729.81 224.7226,719.81" fill="none" style="stroke:#000000;stroke-width:0.5;"/><text fill="#000000" font-family="'Verdana'" font-size="12" lengthAdjust="spacing" textLength="82.1426" x="132.58" y="744.9487">&#1054;&#1089;&#1085;&#1086;&#1074;&#1085;&#1072;&#1103; &#1041;&#1044;</text></g><!--entity Web--><g class="entity" data-qualified-name="Web" data-source-line="39" id="ent0012"><rect fill="#FFFFFF" height="43.9688" rx="2.5" ry="2.5" style="stroke:#000000;stroke-width:0.5;" width="231.3027" x="7" y="431.87"/><rect fill="#FFFFFF" height="10" style="stroke:#000000;stroke-width:0.5;" width="15" x="218.3027" y="436.87"/><rect fill="#FFFFFF" height="2" style="stroke:#000000;stroke-width:0.5;" width="4" x="216.3027" y="438.87"/><rect fill="#FFFFFF" height="2" style="stroke:#000000;stroke-width:0.5;" width="4" x="216.3027" y="442.87"/><text fill="#000000" font-family="'Verdana'" font-size="12" lengthAdjust="spacing" textLength="191.3027" x="22" y="463.0087">&#1055;&#1086;&#1083;&#1100;&#1079;&#1086;&#1074;&#1072;&#1090;&#1077;&#1083;&#1100;&#1089;&#1082;&#1080;&#1081; &#1080;&#1085;&#1090;&#1077;&#1088;&#1092;&#1077;&#1081;&#1089;</text></g><!--link GDELT to Fetcher--><g class="link" data-entity-1="ent0002" data-entity-2="ent0003" data-link-type="dependency" data-source-line="44" id="lnk13"><path d="M457.65,51.38 C457.65,77.12 457.65,114.04 457.65,139.7" fill="none" id="GDELT-to-Fetcher" style="stroke:#181818;stroke-width:1;"/><polygon fill="#181818" points="457.65,145.7,461.65,136.7,457.65,140.7,453.65,136.7,457.65,145.7" style="stroke:#181818;stroke-width:1;"/><text fill="#000000" font-family="'Verdana'" font-size="12" lengthAdjust="spacing" textLength="74.9531" x="458.65" y="103.1087">CSV-&#1072;&#1088;&#1093;&#1080;&#1074;&#1099;</text></g><!--link Fetcher to SDB--><g class="link" data-entity-1="ent0003" data-entity-2="ent0004" data-link-type="dependency" data-source-line="45" id="lnk14"><path d="M398.82,190.33 C381.49,199.7 364.53,212.6 354.65,229.94 C333.21,267.55 348.5013,314.3459 361.5113,343.0259" fill="none" id="Fetcher-to-SDB" style="stroke:#181818;stroke-width:1;"/><polygon fill="#181818" points="363.99,348.49,363.9147,338.6414,361.9245,343.9366,356.6293,341.9463,363.99,348.49" style="stroke:#181818;stroke-width:1;"/><text fill="#000000" font-family="'Verdana'" font-size="12" lengthAdjust="spacing" textLength="127.7813" x="355.65" y="242.0787">&#1057;&#1086;&#1093;&#1088;&#1072;&#1085;&#1077;&#1085;&#1080;&#1077; &#1076;&#1072;&#1085;&#1085;&#1099;&#1093;</text></g><!--link Fetcher to RMQ--><g class="link" data-entity-1="ent0003" data-entity-2="ent0005" data-link-type="dependency" data-source-line="46" id="lnk15"><path d="M471.38,190.2 C488.88,217.31 515.2743,258.1801 529.0143,279.4501" fill="none" id="Fetcher-to-RMQ" style="stroke:#181818;stroke-width:1;"/><polygon fill="#181818" points="532.27,284.49,530.7464,274.7597,529.5569,280.2901,524.0266,279.1006,532.27,284.49" style="stroke:#181818;stroke-width:1;"/><text fill="#000000" font-family="'Verdana'" font-size="12" lengthAdjust="spacing" textLength="69.9961" x="507" y="242.0787">ID &#1089;&#1086;&#1073;&#1099;&#1090;&#1080;&#1081;</text></g><!--link RMQ to Analyzer--><g class="link" data-entity-1="ent0005" data-entity-2="ent0006" data-link-type="dependency" data-source-line="49" id="lnk16"><path d="M532.81,309.31 C517.33,335.1 482.4972,393.1352 462.5272,426.4152" fill="none" id="RMQ-to-Analyzer" style="stroke:#181818;stroke-width:1;"/><polygon fill="#181818" points="459.44,431.56,467.5007,425.9009,462.0127,427.2726,460.6409,421.7846,459.44,431.56" style="stroke:#181818;stroke-width:1;"/><text fill="#000000" font-family="'Verdana'" font-size="12" lengthAdjust="spacing" textLength="85.2305" x="507.92" y="375.0287">&#1055;&#1086;&#1083;&#1091;&#1095;&#1077;&#1085;&#1080;&#1077; ID</text></g><!--reverse link SDB to Analyzer--><g class="link" data-entity-1="ent0004" data-entity-2="ent0006" data-link-type="dependency" data-source-line="50" id="lnk18"><path d="M397.1657,396.8638 C407.7557,408.8338 417.02,419.32 427.67,431.38" fill="none" id="SDB-backto-Analyzer" style="stroke:#181818;stroke-width:1;"/><polygon fill="#181818" points="393.19,392.37,396.1577,401.7611,396.5031,396.1148,402.1494,396.4602,393.19,392.37" style="stroke:#181818;stroke-width:1;"/></g><!--link Analyzer to Translator--><g class="link" data-entity-1="ent0006" data-entity-2="ent0008" data-link-type="dependency" data-source-line="51" id="lnk19"><path d="M456.5,476.26 C468.33,501.99 485.5623,539.4592 497.3723,565.1292" fill="none" id="Analyzer-to-Translator" style="stroke:#181818;stroke-width:1;"/><polygon fill="#181818" points="499.88,570.58,499.7522,560.732,497.7902,566.0377,492.4845,564.0756,499.88,570.58" style="stroke:#181818;stroke-width:1;"/><text fill="#000000" font-family="'Verdana'" font-size="12" lengthAdjust="spacing" textLength="95.9707" x="481.04" y="527.9787">&#1055;&#1077;&#1088;&#1077;&#1074;&#1086;&#1076; &#1087;&#1086;&#1083;&#1077;&#1081;</text></g><!--link Analyzer to Summarizer--><g class="link" data-entity-1="ent0006" data-entity-2="ent0009" data-link-type="dependency" data-source-line="52" id="lnk20"><path d="M518.76,453.86 C564.68,453.86 619.52,453.86 673.86,453.86" fill="none" id="Analyzer-to-Summarizer" style="stroke:#181818;stroke-width:1;"/><polygon fill="#181818" points="679.86,453.86,670.86,449.86,674.86,453.86,670.86,457.86,679.86,453.86" style="stroke:#181818;stroke-width:1;"/><text fill="#000000" font-family="'Verdana'" font-size="12" lengthAdjust="spacing" textLength="100.0898" x="549.28" y="447.9987">&#1056;&#1077;&#1092;&#1077;&#1088;&#1080;&#1088;&#1086;&#1074;&#1072;&#1085;&#1080;&#1077;</text></g><!--link Summarizer to Ollama--><g class="link" data-entity-1="ent0009" data-entity-2="ent0007" data-link-type="dependency" data-source-line="53" id="lnk21"><path d="M811.65,476.26 C811.65,501.99 811.65,538.91 811.65,564.58" fill="none" id="Summarizer-to-Ollama" style="stroke:#181818;stroke-width:1;"/><polygon fill="#181818" points="811.65,570.58,815.65,561.58,811.65,565.58,807.65,561.58,811.65,570.58" style="stroke:#181818;stroke-width:1;"/><text fill="#000000" font-family="'Verdana'" font-size="12" lengthAdjust="spacing" textLength="91.4473" x="812.65" y="527.9787">&#1048;&#1085;&#1092;&#1077;&#1088;&#1077;&#1085;&#1089; LLM</text></g><!--link Analyzer to Core--><g class="link" data-entity-1="ent0006" data-entity-2="ent0010" data-link-type="dependency" data-source-line="54" id="lnk22"><path d="M395.72,476.22 C369.7,487.46 337.7,501.8 309.65,515.84 C275.19,533.1 242.139,551.6776 215.009,567.4276" fill="none" id="Analyzer-to-Core" style="stroke:#181818;stroke-width:1;"/><polygon fill="#181818" points="209.82,570.44,219.6117,569.3807,214.1441,567.9297,215.5952,562.4621,209.82,570.44" style="stroke:#181818;stroke-width:1;"/><text fill="#000000" font-family="'Verdana'" font-size="12" lengthAdjust="spacing" textLength="150.0879" x="310.65" y="527.9787">&#1054;&#1073;&#1088;&#1072;&#1073;&#1086;&#1090;&#1072;&#1085;&#1085;&#1099;&#1077; &#1089;&#1086;&#1073;&#1099;&#1090;&#1080;&#1103;</text></g><!--link Core to CDB--><g class="link" data-entity-1="ent0010" data-entity-2="ent0011" data-link-type="dependency" data-source-line="57" id="lnk23"><path d="M173.65,615.15 C173.65,640.94 173.65,678.05 173.65,703.57" fill="none" id="Core-to-CDB" style="stroke:#181818;stroke-width:1;"/><polygon fill="#181818" points="173.65,709.57,177.65,700.57,173.65,704.57,169.65,700.57,173.65,709.57" style="stroke:#181818;stroke-width:1;"/><text fill="#000000" font-family="'Verdana'" font-size="12" lengthAdjust="spacing" textLength="139.0723" x="174.65" y="666.9487">&#1055;&#1086;&#1089;&#1090;&#1086;&#1103;&#1085;&#1085;&#1086;&#1077; &#1093;&#1088;&#1072;&#1085;&#1077;&#1085;&#1080;&#1077;</text></g><!--link Web to Core--><g class="link" data-entity-1="ent0012" data-entity-2="ent0010" data-link-type="dependency" data-source-line="58" id="lnk24"><path d="M114.17,476.26 C109.29,491.92 105.42,513.39 112.65,530.84 C119.07,546.34 127.0161,556.0201 139.0261,566.4301" fill="none" id="Web-to-Core" style="stroke:#181818;stroke-width:1;"/><polygon fill="#181818" points="143.56,570.36,139.3791,561.4426,139.7818,567.0851,134.1393,567.4878,143.56,570.36" style="stroke:#181818;stroke-width:1;"/><text fill="#000000" font-family="'Verdana'" font-size="12" lengthAdjust="spacing" textLength="103.1719" x="113.65" y="527.9787">REST API / &#1050;&#1072;&#1088;&#1090;&#1072;</text></g><?plantuml-src XLLRJnj767tVNp7Y9QrKvofLLHyg4Jkfa4XpCKaUK1u6Uy0hTdVeUgrSdZ0NeGeYcYXIK9kGH57LnouE5njYzo_C_AEUxvjTl3YcUM35p7oNSyvtPfpe9P5eCQUJH8UYxiUgblWwyfgBVhGaOuazDIzRGJAZdYIJWRyGXIfAH0qV5HUYQZfSqX5sgydJG8bM65prl0l2l3MfRTiLksm6fcUEJLUOVNDYjuLzZjN0zF7tcRyzOVur1tO32IkcMoWTwaZN6h4EbKZYbYgSD1kohX_xqOAObq5JVGdwfewINoGI9nwek2uZEJ4-fke_K-AAG_mEMBkcRrS1j0ie1u2xXVKc8TpZ9VrhrmXzpiPqR1lWrmLX1u-1wH334uH_nbyVsxG5eYdsUTMZtAv9pISqJ166m0AwSYxeTLbRN8XrAwgNTQ1ZyRZX9qMg5Pd8ETbKNukxsrAjSuB6jjLnNSKkQYv0shYM_nFZsdqHG0f_D1sI4UfkG80Eo4CbGIh0AcqInsv3gQxT_axO3HPhpsvoW3aYkJ2R8vgDtNAUMKQ1O_foDetgG60U7PGvEcEbIDTLKos9xoyNDcCPBTBc3vSPtKu6OOCWECTsgTeUzfR5D-ObDRJhV0eRhBArEppahM-zsT5yIcNyx8pU8o6RukVAZUaPXBx1oJx8m62d7M0G-295CdZOTOw_gP9Q0zUjdkak9jYb0_RM8I3a_LAouWlpQeAogfNhJ6WNHqwZVH8CV4wG-ed9fI3qmPsTG-XNcYCQdgt2f8ZMRnH7YTpotgsx8xIOIKh3nYXIPZCPoU3fCz2PDNyYyfYEwOOn-kdfMnnqEmXaACU6W3Ngktivd7-7Drs76Ooq6SX4nrylmBPPuoBTZ7dgpCUbggqmbB5FS4dBlzY4_Opq0QbvVmeQliNgy5nBVE3o7Vuw2FpCjJC7yuD3CpbqTRFMPHshuiXt8NgV2uyCken1pvftE2AEHuv3_d8XwPXXyQEsmkO5NTEpRUxoKCqHirAf983pfVd7l3OxjAJTAnTfqpc_w4gF7Ooedt9lYXz5kVgWXBvqDt2hxQQN7r4Op8WG51lOzL4DYuMBEN0JSgOg8rU8W5q5iD-7pZfRW_8eFpSQDNRgh9A9ixPJ5Uyqe1Ie-MI8ycyMRmowOGA2Xovp3Ge-5FmJGAz_hv0J-miDxdBgAKfyFzv_-34en54_ToKePGTmrh9-VTkcItCM6bc70dUX6ebD4rp9URZ7yLHGkqs2NhiurjoSDyYg7EOd7jVdHaumg5jukCcaw34oPmzEAuAxTwCw8oRlJ8bBmlp1lW52xpy0?></g></svg>