<?plantuml 1.2026.2?><svg xmlns="http://www.w3.org/2000/svg" xmlns:xlink="http://www.w3.org/1999/xlink" contentStyleType="text/css" data-diagram-type="DESCRIPTION" height="741px" preserveAspectRatio="none" style="width:828px;height:741px;background:#FFFFFF;" version="1.1" viewBox="0 0 828 741" width="828px" zoomAndPan="magnify"><defs/><g><!--entity GDELT--><g class="entity" data-qualified-name="GDELT" data-source-line="25" id="ent0002"><rect fill="#FFFFFF" height="43.9688" rx="2.5" ry="2.5" style="stroke:#000000;stroke-width:0.5;" width="157.1055" x="361.1" y="7"/><rect fill="#FFFFFF" height="10" style="stroke:#000000;stroke-width:0.5;" width="15" x="498.2055" y="12"/><rect fill="#FFFFFF" height="2" style="stroke:#000000;stroke-width:0.5;" width="4" x="496.2055" y="14"/><rect fill="#FFFFFF" height="2" style="stroke:#000000;stroke-width:0.5;" width="4" x="496.2055" y="18"/><text fill="#000000" font-family="'Verdana'" font-size="12" lengthAdjust="spacing" textLength="117.1055" x="376.1" y="38.1387">&#1048;&#1089;&#1090;&#1086;&#1095;&#1085;&#1080;&#1082; &#1089;&#1086;&#1073;&#1099;&#1090;&#1080;&#1081;</text></g><!--entity Fetcher--><g class="entity" data-qualified-name="Fetcher" data-source-line="26" id="ent0003"><rect fill="#FFFFFF" height="43.9688" rx="2.5" ry="2.5" style="stroke:#000000;stroke-width:0.5;" width="179.6934" x="349.8" y="145.97"/><rect fill="#FFFFFF" height="10" style="stroke:#000000;stroke-width:0.5;" width="15" x="509.4934" y="150.97"/><rect fill="#FFFFFF" height="2" style="stroke:#000000;stroke-width:0.5;" width="4" x="507.4934" y="152.97"/><rect fill="#FFFFFF" height="2" style="stroke:#000000;stroke-width:0.5;" width="4" x="507.4934" y="156.97"/><text fill="#000000" font-family="'Verdana'" font-size="12" lengthAdjust="spacing" textLength="139.6934" x="364.8" y="177.1087">&#1052;&#1086;&#1076;&#1091;&#1083;&#1100; &#1089;&#1073;&#1086;&#1088;&#1072; &#1076;&#1072;&#1085;&#1085;&#1099;&#1093;</text></g><!--entity RMQ--><g class="entity" data-qualified-name="RMQ" data-source-line="29" id="ent0004"><path d="M370.2,284.94 L509.1121,284.94 C514.1121,284.94 514.1121,296.9244 514.1121,296.9244 C514.1121,296.9244 514.1121,308.9087 509.1121,308.9087 L370.2,308.9087 C365.2,308.9087 365.2,296.9244 365.2,296.9244 C365.2,296.9244 365.2,284.94 370.2,284.94" fill="#FFFFFF" style="stroke:#000000;stroke-width:0.5;"/><path d="M509.1121,284.94 C504.1121,284.94 504.1121,296.9244 504.1121,296.9244 C504.1121,308.9087 509.1121,308.9087 509.1121,308.9087" fill="none" style="stroke:#000000;stroke-width:0.5;"/><text fill="#000000" font-family="'Verdana'" font-size="12" lengthAdjust="spacing" textLength="128.9121" x="370.2" y="301.0787">&#1054;&#1095;&#1077;&#1088;&#1077;&#1076;&#1100; &#1089;&#1086;&#1086;&#1073;&#1097;&#1077;&#1085;&#1080;&#1081;</text></g><!--entity Analyzer--><g class="entity" data-qualified-name="Analyzer" data-source-line="30" id="ent0005"><rect fill="#FFFFFF" height="43.9688" rx="2.5" ry="2.5" style="stroke:#000000;stroke-width:0.5;" width="143.4063" x="367.95" y="403.9"/><rect fill="#FFFFFF" height="10" style="stroke:#000000;stroke-width:0.5;" width="15" x="491.3563" y="408.9"/><rect fill="#FFFFFF" height="2" style="stroke:#000000;stroke-width:0.5;" width="4" x="489.3563" y="410.9"/><rect fill="#FFFFFF" height="2" style="stroke:#000000;stroke-width:0.5;" width="4" x="489.3563" y="414.9"/><text fill="#000000" font-family="'Verdana'" font-size="12" lengthAdjust="spacing" textLength="103.4063" x="382.95" y="435.0387">&#1052;&#1086;&#1076;&#1091;&#1083;&#1100; &#1072;&#1085;&#1072;&#1083;&#1080;&#1079;&#1072;</text></g><!--entity Ollama--><g class="entity" data-qualified-name="Ollama" data-source-line="31" id="ent0006"><rect fill="#FFFFFF" height="43.9688" rx="2.5" ry="2.5" style="stroke:#000000;stroke-width:0.5;" width="135.666" x="686.82" y="403.9"/><rect fill="#FFFFFF" height="10" style="stroke:#000000;stroke-width:0.5;" width="15" x="802.486" y="408.9"/><rect fill="#FFFFFF" height="2" style="stroke:#000000;stroke-width:0.5;" width="4" x="800.486" y="410.9"/><rect fill="#FFFFFF" height="2" style="stroke:#000000;stroke-width:0.5;" width="4" x="800.486" y="414.9"/><text fill="#000000" font-family="'Verdana'" font-size="12" lengthAdjust="spacing" textLength="95.666" x="701.82" y="435.0387">&#1051;&#1086;&#1082;&#1072;&#1083;&#1100;&#1085;&#1072;&#1103; LLM</text></g><!--entity Translator--><g class="entity" data-qualified-name="Translator" data-source-line="32" id="ent0007"><rect fill="#FFFFFF" height="43.9688" rx="2.5" ry="2.5" style="stroke:#000000;stroke-width:0.5;" width="222.8652" x="398.22" y="542.87"/><rect fill="#FFFFFF" height="10" style="stroke:#000000;stroke-width:0.5;" width="15" x="601.0852" y="547.87"/><rect fill="#FFFFFF" height="2" style="stroke:#000000;stroke-width:0.5;" width="4" x="599.0852" y="549.87"/><rect fill="#FFFFFF" height="2" style="stroke:#000000;stroke-width:0.5;" width="4" x="599.0852" y="553.87"/><text fill="#000000" font-family="'Verdana'" font-size="12" lengthAdjust="spacing" textLength="182.8652" x="413.22" y="574.0087">&#1051;&#1086;&#1082;&#1072;&#1083;&#1100;&#1085;&#1072;&#1103; &#1084;&#1086;&#1076;&#1077;&#1083;&#1100; &#1087;&#1077;&#1088;&#1077;&#1074;&#1086;&#1076;&#1072;</text></g><!--entity Core--><g class="entity" data-qualified-name="Core" data-source-line="35" id="ent0008"><rect fill="#FFFFFF" height="43.9688" rx="2.5" ry="2.5" style="stroke:#000000;stroke-width:0.5;" width="229.9316" x="58.69" y="542.87"/><rect fill="#FFFFFF" height="10" style="stroke:#000000;stroke-width:0.5;" width="15" x="268.6216" y="547.87"/><rect fill="#FFFFFF" height="2" style="stroke:#000000;stroke-width:0.5;" width="4" x="266.6216" y="549.87"/><rect fill="#FFFFFF" height="2" style="stroke:#000000;stroke-width:0.5;" width="4" x="266.6216" y="553.87"/><text fill="#000000" font-family="'Verdana'" font-size="12" lengthAdjust="spacing" textLength="189.9316" x="73.69" y="574.0087">&#1057;&#1077;&#1088;&#1074;&#1077;&#1088;&#1085;&#1072;&#1103; &#1095;&#1072;&#1089;&#1090;&#1100; &#1087;&#1088;&#1080;&#1083;&#1086;&#1078;&#1077;&#1085;&#1080;&#1103;</text></g><!--entity CDB--><g class="entity" data-qualified-name="CDB" data-source-line="36" id="ent0009"><path d="M123.13,691.84 C123.13,681.84 173.6564,681.84 173.6564,681.84 C173.6564,681.84 224.1827,681.84 224.1827,691.84 L224.1827,714.8087 C224.1827,724.8087 173.6564,724.8087 173.6564,724.8087 C173.6564,724.8087 123.13,724.8087 123.13,714.8087 L123.13,691.84" fill="#FFFFFF" style="stroke:#000000;stroke-width:0.5;"/><path d="M123.13,691.84 C123.13,701.84 173.6564,701.84 173.6564,701.84 C173.6564,701.84 224.1827,701.84 224.1827,691.84" fill="none" style="stroke:#000000;stroke-width:0.5;"/><text fill="#000000" font-family="'Verdana'" font-size="12" lengthAdjust="spacing" textLength="81.0527" x="133.13" y="716.9787">&#1041;&#1072;&#1079;&#1072; &#1076;&#1072;&#1085;&#1085;&#1099;&#1093;</text></g><!--entity Web--><g class="entity" data-qualified-name="Web" data-source-line="37" id="ent0010"><rect fill="#FFFFFF" height="43.9688" rx="2.5" ry="2.5" style="stroke:#000000;stroke-width:0.5;" width="231.3027" x="7" y="403.9"/><rect fill="#FFFFFF" height="10" style="stroke:#000000;stroke-width:0.5;" width="15" x="218.3027" y="408.9"/><rect fill="#FFFFFF" height="2" style="stroke:#000000;stroke-width:0.5;" width="4" x="216.3027" y="410.9"/><rect fill="#FFFFFF" height="2" style="stroke:#000000;stroke-width:0.5;" width="4" x="216.3027" y="414.9"/><text fill="#000000" font-family="'Verdana'" font-size="12" lengthAdjust="spacing" textLength="191.3027" x="22" y="435.0387">&#1055;&#1086;&#1083;&#1100;&#1079;&#1086;&#1074;&#1072;&#1090;&#1077;&#1083;&#1100;&#1089;&#1082;&#1080;&#1081; &#1080;&#1085;&#1090;&#1077;&#1088;&#1092;&#1077;&#1081;&#1089;</text></g><!--link GDELT to Fetcher--><g class="link" data-entity-1="ent0002" data-entity-2="ent0003" data-link-type="dependency" data-source-line="42" id="lnk11"><path d="M439.65,51.38 C439.65,77.12 439.65,114.03 439.65,139.7" fill="none" id="GDELT-to-Fetcher" style="stroke:#181818;stroke-width:1;"/><polygon fill="#181818" points="439.65,145.7,443.65,136.7,439.65,140.7,435.65,136.7,439.65,145.7" style="stroke:#181818;stroke-width:1;"/><text fill="#000000" font-family="'Verdana'" font-size="12" lengthAdjust="spacing" textLength="74.9531" x="440.65" y="103.1087">CSV-&#1072;&#1088;&#1093;&#1080;&#1074;&#1099;</text></g><!--link Fetcher to RMQ--><g class="link" data-entity-1="ent0003" data-entity-2="ent0004" data-link-type="dependency" data-source-line="43" id="lnk12"><path d="M439.65,190.2 C439.65,217.31 439.65,257.22 439.65,278.48" fill="none" id="Fetcher-to-RMQ" style="stroke:#181818;stroke-width:1;"/><polygon fill="#181818" points="439.65,284.48,443.65,275.48,439.65,279.48,435.65,275.48,439.65,284.48" style="stroke:#181818;stroke-width:1;"/><text fill="#000000" font-family="'Verdana'" font-size="12" lengthAdjust="spacing" textLength="106.4941" x="440.65" y="242.0787">&#1044;&#1072;&#1085;&#1085;&#1099;&#1077; &#1089;&#1086;&#1073;&#1099;&#1090;&#1080;&#1081;</text></g><!--link RMQ to Analyzer--><g class="link" data-entity-1="ent0004" data-entity-2="ent0005" data-link-type="dependency" data-source-line="46" id="lnk13"><path d="M439.65,309.19 C439.65,330.43 439.65,370.7 439.65,397.85" fill="none" id="RMQ-to-Analyzer" style="stroke:#181818;stroke-width:1;"/><polygon fill="#181818" points="439.65,403.85,443.65,394.85,439.65,398.85,435.65,394.85,439.65,403.85" style="stroke:#181818;stroke-width:1;"/><text fill="#000000" font-family="'Verdana'" font-size="12" lengthAdjust="spacing" textLength="120.3691" x="440.65" y="361.0387">&#1055;&#1086;&#1083;&#1091;&#1095;&#1077;&#1085;&#1080;&#1077; &#1076;&#1072;&#1085;&#1085;&#1099;&#1093;</text></g><!--link Analyzer to Translator--><g class="link" data-entity-1="ent0005" data-entity-2="ent0007" data-link-type="dependency" data-source-line="47" id="lnk14"><path d="M450.59,448.29 C463.74,474.02 482.9394,511.5974 496.0594,537.2674" fill="none" id="Analyzer-to-Translator" style="stroke:#181818;stroke-width:1;"/><polygon fill="#181818" points="498.79,542.61,498.2558,532.7756,496.5145,538.1578,491.1323,536.4165,498.79,542.61" style="stroke:#181818;stroke-width:1;"/><text fill="#000000" font-family="'Verdana'" font-size="12" lengthAdjust="spacing" textLength="95.9707" x="477.75" y="500.0087">&#1055;&#1077;&#1088;&#1077;&#1074;&#1086;&#1076; &#1087;&#1086;&#1083;&#1077;&#1081;</text></g><!--link Analyzer to Ollama--><g class="link" data-entity-1="ent0005" data-entity-2="ent0006" data-link-type="dependency" data-source-line="48" id="lnk15"><path d="M511.52,425.89 C564,425.89 628.7,425.89 680.33,425.89" fill="none" id="Analyzer-to-Ollama" style="stroke:#181818;stroke-width:1;"/><polygon fill="#181818" points="686.33,425.89,677.33,421.89,681.33,425.89,677.33,429.89,686.33,425.89" style="stroke:#181818;stroke-width:1;"/><text fill="#000000" font-family="'Verdana'" font-size="12" lengthAdjust="spacing" textLength="114.4629" x="542.09" y="420.0287">&#1043;&#1077;&#1085;&#1077;&#1088;&#1072;&#1094;&#1080;&#1103; &#1090;&#1077;&#1082;&#1089;&#1090;&#1072;</text></g><!--link Analyzer to Core--><g class="link" data-entity-1="ent0005" data-entity-2="ent0008" data-link-type="dependency" data-source-line="49" id="lnk16"><path d="M389.48,448.37 C364.08,459.58 332.93,473.85 305.65,487.87 C272.14,505.1 240.1772,523.6068 213.8672,539.3668" fill="none" id="Analyzer-to-Core" style="stroke:#181818;stroke-width:1;"/><polygon fill="#181818" points="208.72,542.45,218.4963,541.2566,213.0093,539.8806,214.3853,534.3937,208.72,542.45" style="stroke:#181818;stroke-width:1;"/><text fill="#000000" font-family="'Verdana'" font-size="12" lengthAdjust="spacing" textLength="150.0879" x="306.65" y="500.0087">&#1054;&#1073;&#1088;&#1072;&#1073;&#1086;&#1090;&#1072;&#1085;&#1085;&#1099;&#1077; &#1089;&#1086;&#1073;&#1099;&#1090;&#1080;&#1103;</text></g><!--link Core to CDB--><g class="link" data-entity-1="ent0008" data-entity-2="ent0009" data-link-type="dependency" data-source-line="52" id="lnk17"><path d="M173.65,587.18 C173.65,612.97 173.65,650.08 173.65,675.6" fill="none" id="Core-to-CDB" style="stroke:#181818;stroke-width:1;"/><polygon fill="#181818" points="173.65,681.6,177.65,672.6,173.65,676.6,169.65,672.6,173.65,681.6" style="stroke:#181818;stroke-width:1;"/><text fill="#000000" font-family="'Verdana'" font-size="12" lengthAdjust="spacing" textLength="139.0723" x="174.65" y="638.9787">&#1055;&#1086;&#1089;&#1090;&#1086;&#1103;&#1085;&#1085;&#1086;&#1077; &#1093;&#1088;&#1072;&#1085;&#1077;&#1085;&#1080;&#1077;</text></g><!--link Web to Core--><g class="link" data-entity-1="ent0010" data-entity-2="ent0008" data-link-type="dependency" data-source-line="53" id="lnk18"><path d="M114.17,448.29 C109.29,463.95 105.42,485.42 112.65,502.87 C119.07,518.37 127.0161,528.0501 139.0261,538.4601" fill="none" id="Web-to-Core" style="stroke:#181818;stroke-width:1;"/><polygon fill="#181818" points="143.56,542.39,139.3791,533.4726,139.7818,539.1151,134.1393,539.5178,143.56,542.39" style="stroke:#181818;stroke-width:1;"/><text fill="#000000" font-family="'Verdana'" font-size="12" lengthAdjust="spacing" textLength="103.1719" x="113.65" y="500.0087">REST API / &#1050;&#1072;&#1088;&#1090;&#1072;</text></g><?plantuml-src XLLTJnD157tVNp7XHKq4KHDZV3218iO4lm3nWVWmj2DjsExWTXlK9yg7n82feeb4HKECpow5Gbi4_yBCF_BSErtOOj67RfYPU-yvzvupGwHdHQJ5b8uYNHIvGgYoKK47Nccc4CpAK69FFPLbFnfNpwC1lp0T55KGYIm-Aan5PNLnLWVO7OjU-4gKY_uLppidpAQ9RSKks7bpP9gcPHh2x9e3MnNs3LP7vX2_N_nj2lFRrEqA4XPC8rMwg0ETpOUwg4GKbbNgf9INEJrN2AR5K-cNrD-aXtKGtPD8x9bGOKu6igTxp5ZXfHAN7UDluDemXtOHH1kWKWVTDQnNYU4sB-bFkqJiasvCpLP0VbaGT_HnP6hKuG72V-5tY6tQGgCnzddLfDo6YSqE06E48J35BfCCT51cPwP3NGvo6UthKCpb2r6wrI4PoIbPKl-BUrXMvJE2kiBgCAT25pNb8wqRv3zY7DnV0JJXxwP6OyHqLp206fh7b0HD0LQfq71i5PDgsEf5OLTuMDjsbGFCFeqBskoJDdRDUMOU1LhqvMoIgYwWHmrbzZki5EYSAgbPSQq_jHdAO8Osh_SpkuqsXHMYu1pRe6hRs9iNvyqw0TfbFeKD5jdQDHPvxO8tUJgVKfa_EwFvHCYIk3rqQsGSeLzmiejcOB1Z11W4leYHZ3xiCiSFgoYRntKZUbzHs7MyI-s3tG6gx33L6FIstDaPz9wHAgBdL1McI2HVKnmbzX3iwDs7fqWohvYams1ZvZOGIF_5Iv2RD9yHsQ9ZkYyGiof6Hkvoq7tVbqNPDGIsHtrtoqxKhF6cGnY7G2LVHjeDu0VxuB3Dj4uZU7G7ZMzYjNUcAbjSkCPV1ymlJQLj8hxpDCWzLzTM6JgZG-Nbscx7sDwn0piLub5bXWO1yWq5gBDznewJnmFZRJ4jVbSMs3zBE6hQ2gCyLbFKMMzlhm3FTVFJV3GRjAJTotsqwSoNXlNOH8YwcTX3t12PiObUu98zSR7igfSSKHZaH8ZvaDHmboJbJOAx0hYt9o9tGb85gfHeJkLSpulafqIGTCfnAEMTAEaoKreBVZJflMocSiB2T3v2elCF9Rrdc3e_5gz89y5JRl6bYplXI3tA-OeMoJCqn8KpkhTLwlvgNrT_STvHkyfUSk9nVGOQ6coF8lLyqVyqO2ntblCWTfhSwAsnSJ7mu8wu9CmdbexQ-0C0?></g></svg>