<?plantuml 1.2026.2?><svg xmlns="http://www.w3.org/2000/svg" xmlns:xlink="http://www.w3.org/1999/xlink" contentStyleType="text/css" data-diagram-type="DESCRIPTION" height="938px" preserveAspectRatio="none" style="width:2093px;height:938px;background:#FFFFFF;" version="1.1" viewBox="0 0 2093 938" width="2093px" zoomAndPan="magnify"><defs/><g><!--cluster User Device--><g class="cluster" data-qualified-name="User Device" data-source-line="22" id="ent0002"><polygon fill="#FFFFFF" points="43.2274,16,53.2274,6,279.2274,6,279.2274,121,269.2274,131,43.2274,131,43.2274,16" style="stroke:#000000;stroke-width:1;"/><line style="stroke:#000000;stroke-width:1;" x1="269.2274" x2="279.2274" y1="16" y2="6"/><line style="stroke:#000000;stroke-width:1;" x1="43.2274" x2="269.2274" y1="16" y2="16"/><line style="stroke:#000000;stroke-width:1;" x1="269.2274" x2="269.2274" y1="16" y2="131"/><text fill="#000000" font-family="'Verdana'" font-size="24" font-weight="bold" lengthAdjust="spacing" textLength="160.8164" x="76.8192" y="41.2773">User Device</text></g><!--cluster External Sources--><g class="cluster" data-qualified-name="External Sources" data-source-line="26" id="ent0004"><path d="M31.2734,181.9806 C36.9703,173.1116 46.2729,175.0309 50.8399,183.2726 C57.0052,174.8813 62.5145,173.5273 68.6947,183.258 C73.5604,172.9864 82.3727,173.4413 88.8657,181.4637 C93.8207,173.0302 102.8361,172.0707 107.8132,181.4402 C113.5459,173.4057 120.1985,170.7978 126.5679,180.7773 C132.6382,173.013 140.4258,173.6658 145.4965,181.9558 C149.0021,173.6344 156.6051,174.0015 160.7814,181.2994 C166.1419,171.3018 174.748,170.7352 181.0549,180.3195 C187.6458,172.9993 193.7584,171.0614 199.7825,180.9368 C205.1975,172.4699 211.8208,171.9204 218.2608,179.7765 C225.5365,172.5247 231.6647,172.2179 237.1824,181.7576 C243.29,173.8514 248.5307,173.1829 254.1177,182.2763 C260.2714,173.2963 269.4776,173.1215 273.8228,184.0649 C283.5408,175.2983 291.4768,176.6997 297.9174,188 C298.8318,187.5969 299.4488,187.8497 299.5815,188.897 C309.7246,194.2747 312.0256,204.7175 300.671,211.1479 C313.1031,215.8307 311.6924,225.6866 303.3808,232.9478 C312.2041,240.0194 313.4652,247.2444 302.5223,253.49 C312.6175,258.3051 312.925,265.4943 303.9333,271.7818 C315.8879,277.3374 314.8576,285.5844 305.4975,292.7315 C314.3891,299.0294 315.0709,305.7111 305.9203,312.3968 C314.2368,319.8156 314.4766,326.7959 305.1549,333.5772 C316.5856,340.9008 315.8027,348.029 304.9269,355.1164 C313.7029,362.8733 314.2359,369.9948 303.6381,376.5889 C312.135,381.4231 312.7176,391.0163 303.9575,396.1325 C312.5632,403.9431 310.6465,411.1881 301.2052,416.5681 C312.4451,429.3154 307.2883,440.9994 290.9174,443 C292.7453,442.058 294.0398,442.9804 294.0485,444.9537 C288.3453,454.001 281.6924,455.5264 274.1625,447.0236 C269.8548,456.5735 262.0501,454.5035 257.0503,447.75 C249.8948,456.9499 241.0652,457.9023 235.6969,445.946 C232.3078,455.5196 225.015,456.2396 218.855,448.6678 C213.2716,457.1317 202.8796,457.6903 197.9487,447.9197 C193.0454,456.388 187.412,455.8377 182.2167,448.205 C177.4323,456.3594 168.5112,457.7102 163.4845,448.4659 C159.0286,456.4477 149.5823,457.8262 144.3196,449.4088 C137.8692,459.2065 130.9756,457.8817 124.5816,449.348 C118.3605,457.8256 111.8568,457.7014 106.0749,448.8781 C99.1938,455.0486 93.0669,454.1691 89.925,444.9533 C83.8847,453.7715 76.4537,453.1526 70.721,444.6131 C65.2175,453.6058 58.6612,453.8073 51.7823,446.1804 C39.0294,456.5412 27.0223,451.3527 23.5374,436 C25.928,435.5135 27.884,436.543 27.1661,439.3869 C16.3315,434.0123 16.2017,426.9114 23.5225,418.3868 C11.2895,412.6631 11.8619,402.2755 22.7597,395.7718 C14.8654,391.328 12.7497,382.5312 21.8301,377.236 C9.9365,371.2128 9.3367,363.1831 20.3652,355.6074 C10.6478,349.4694 9.2839,341.2566 19.834,334.606 C9.9263,331.0168 8.4803,322.1568 16.204,315.2595 C6,306.9821 9.1397,299.7248 19.1061,294.2311 C8.976,288.5555 7.3658,279.7457 18.5346,273.4834 C7.5767,266.3459 9.6523,257.0849 19.5419,250.8763 C11.989,244.1738 12.0641,237.3364 21.7401,232.7198 C12.7531,225.5434 12.7824,217.1838 22.3194,210.4902 C12.5658,199.8264 13.7196,184.2592 30.5374,181 C31.1987,180.9779 31.5097,181.3288 31.2734,181.9806" fill="#FFFFFF" style="stroke:#000000;stroke-width:1;"/><text fill="#000000" font-family="'Verdana'" font-size="24" font-weight="bold" lengthAdjust="spacing" textLength="228.8086" x="46.3231" y="208.2773">External Sources</text></g><!--cluster Web Server--><g class="cluster" data-qualified-name="Web Server" data-source-line="33" id="ent0007"><polygon fill="#FFFFFF" points="533.9174,16,543.9174,6,766.9174,6,766.9174,121,756.9174,131,533.9174,131,533.9174,16" style="stroke:#000000;stroke-width:1;"/><line style="stroke:#000000;stroke-width:1;" x1="756.9174" x2="766.9174" y1="16" y2="6"/><line style="stroke:#000000;stroke-width:1;" x1="533.9174" x2="756.9174" y1="16" y2="16"/><line style="stroke:#000000;stroke-width:1;" x1="756.9174" x2="756.9174" y1="16" y2="131"/><text fill="#000000" font-family="'Verdana'" font-size="24" font-weight="bold" lengthAdjust="spacing" textLength="157.4414" x="567.6967" y="41.2773">Web Server</text></g><!--cluster Analytics Server--><g class="cluster" data-qualified-name="Analytics Server" data-source-line="37" id="ent0009"><polygon fill="#FFFFFF" points="501.9174,326,511.9174,316,798.9174,316,798.9174,589,788.9174,599,501.9174,599,501.9174,326" style="stroke:#000000;stroke-width:1;"/><line style="stroke:#000000;stroke-width:1;" x1="788.9174" x2="798.9174" y1="326" y2="316"/><line style="stroke:#000000;stroke-width:1;" x1="501.9174" x2="788.9174" y1="326" y2="326"/><line style="stroke:#000000;stroke-width:1;" x1="788.9174" x2="788.9174" y1="326" y2="599"/><text fill="#000000" font-family="'Verdana'" font-size="24" font-weight="bold" lengthAdjust="spacing" textLength="221.4492" x="535.6928" y="351.2773">Analytics Server</text></g><!--cluster Ollama Server--><g class="cluster" data-qualified-name="Ollama Server" data-source-line="42" id="ent0012"><polygon fill="#FFFFFF" points="893.9174,703,903.9174,693,1194.9974,693,1194.9974,808,1184.9974,818,893.9174,818,893.9174,703" style="stroke:#000000;stroke-width:1;"/><line style="stroke:#000000;stroke-width:1;" x1="1184.9974" x2="1194.9974" y1="703" y2="693"/><line style="stroke:#000000;stroke-width:1;" x1="893.9174" x2="1184.9974" y1="703" y2="703"/><line style="stroke:#000000;stroke-width:1;" x1="1184.9974" x2="1184.9974" y1="703" y2="818"/><text fill="#000000" font-family="'Verdana'" font-size="24" font-weight="bold" lengthAdjust="spacing" textLength="191.7656" x="944.5746" y="728.2773">Ollama Server</text></g><!--cluster Backend Server--><g class="cluster" data-qualified-name="Backend Server" data-source-line="46" id="ent0014"><polygon fill="#FFFFFF" points="1278.9974,263,1288.9974,253,1566.9974,253,1566.9974,368,1556.9974,378,1278.9974,378,1278.9974,263" style="stroke:#000000;stroke-width:1;"/><line style="stroke:#000000;stroke-width:1;" x1="1556.9974" x2="1566.9974" y1="263" y2="253"/><line style="stroke:#000000;stroke-width:1;" x1="1278.9974" x2="1556.9974" y1="263" y2="263"/><line style="stroke:#000000;stroke-width:1;" x1="1556.9974" x2="1556.9974" y1="263" y2="378"/><text fill="#000000" font-family="'Verdana'" font-size="24" font-weight="bold" lengthAdjust="spacing" textLength="212.7305" x="1312.6322" y="288.2773">Backend Server</text></g><!--cluster Message Broker Server--><g class="cluster" data-qualified-name="Message Broker Server" data-source-line="50" id="ent0016"><polygon fill="#FFFFFF" points="1227.9974,456,1237.9974,446,1617.9974,446,1617.9974,561,1607.9974,571,1227.9974,571,1227.9974,456" style="stroke:#000000;stroke-width:1;"/><line style="stroke:#000000;stroke-width:1;" x1="1607.9974" x2="1617.9974" y1="456" y2="446"/><line style="stroke:#000000;stroke-width:1;" x1="1227.9974" x2="1607.9974" y1="456" y2="456"/><line style="stroke:#000000;stroke-width:1;" x1="1607.9974" x2="1607.9974" y1="456" y2="571"/><text fill="#000000" font-family="'Verdana'" font-size="24" font-weight="bold" lengthAdjust="spacing" textLength="314.9414" x="1261.5267" y="481.2773">Message Broker Server</text></g><!--cluster Database Server--><g class="cluster" data-qualified-name="Database Server" data-source-line="54" id="ent0018"><polygon fill="#FFFFFF" points="1758.9974,264,1768.9974,254,2076.7774,254,2076.7774,367,2066.7774,377,1758.9974,377,1758.9974,264" style="stroke:#000000;stroke-width:1;"/><line style="stroke:#000000;stroke-width:1;" x1="2066.7774" x2="2076.7774" y1="264" y2="254"/><line style="stroke:#000000;stroke-width:1;" x1="1758.9974" x2="2066.7774" y1="264" y2="264"/><line style="stroke:#000000;stroke-width:1;" x1="2066.7774" x2="2066.7774" y1="264" y2="377"/><text fill="#000000" font-family="'Verdana'" font-size="24" font-weight="bold" lengthAdjust="spacing" textLength="225.2344" x="1801.2702" y="289.2773">Database Server</text></g><!--entity Browser--><g class="entity" data-qualified-name="User Device.Browser" data-source-line="23" id="ent0003"><rect fill="#FFFFFF" height="57.9375" rx="2.5" ry="2.5" style="stroke:#000000;stroke-width:0.5;" width="137.7813" x="91.8374" y="57.03"/><rect fill="#FFFFFF" height="10" style="stroke:#000000;stroke-width:0.5;" width="15" x="209.6186" y="62.03"/><rect fill="#FFFFFF" height="2" style="stroke:#000000;stroke-width:0.5;" width="4" x="207.6186" y="64.03"/><rect fill="#FFFFFF" height="2" style="stroke:#000000;stroke-width:0.5;" width="4" x="207.6186" y="68.03"/><text fill="#000000" font-family="'Verdana'" font-size="24" lengthAdjust="spacing" textLength="97.7813" x="106.8374" y="99.3073">Browser</text></g><!--entity GDELT--><g class="entity" data-qualified-name="External Sources.GDELT" data-source-line="27" id="ent0005"><rect fill="#FFFFFF" height="57.9375" rx="2.5" ry="2.5" style="stroke:#000000;stroke-width:0.5;" width="210.9648" x="55.2474" y="219.03"/><rect fill="#FFFFFF" height="10" style="stroke:#000000;stroke-width:0.5;" width="15" x="246.2122" y="224.03"/><rect fill="#FFFFFF" height="2" style="stroke:#000000;stroke-width:0.5;" width="4" x="244.2122" y="226.03"/><rect fill="#FFFFFF" height="2" style="stroke:#000000;stroke-width:0.5;" width="4" x="244.2122" y="230.03"/><text fill="#000000" font-family="'Verdana'" font-size="24" lengthAdjust="spacing" textLength="170.9648" x="70.2474" y="261.3073">GDELT Project</text></g><!--entity News--><g class="entity" data-qualified-name="External Sources.News" data-source-line="28" id="ent0006"><rect fill="#FFFFFF" height="57.9375" rx="2.5" ry="2.5" style="stroke:#000000;stroke-width:0.5;" width="258.3789" x="31.5374" y="377.03"/><rect fill="#FFFFFF" height="10" style="stroke:#000000;stroke-width:0.5;" width="15" x="269.9163" y="382.03"/><rect fill="#FFFFFF" height="2" style="stroke:#000000;stroke-width:0.5;" width="4" x="267.9163" y="384.03"/><rect fill="#FFFFFF" height="2" style="stroke:#000000;stroke-width:0.5;" width="4" x="267.9163" y="388.03"/><text fill="#000000" font-family="'Verdana'" font-size="24" lengthAdjust="spacing" textLength="218.3789" x="46.5374" y="419.3073">News Media / APIs</text></g><!--entity Nginx--><g class="entity" data-qualified-name="Web Server.Nginx" data-source-line="34" id="ent0008"><rect fill="#FFFFFF" height="57.9375" rx="2.5" ry="2.5" style="stroke:#000000;stroke-width:0.5;" width="109.2695" x="595.2774" y="57.03"/><rect fill="#FFFFFF" height="10" style="stroke:#000000;stroke-width:0.5;" width="15" x="684.5469" y="62.03"/><rect fill="#FFFFFF" height="2" style="stroke:#000000;stroke-width:0.5;" width="4" x="682.5469" y="64.03"/><rect fill="#FFFFFF" height="2" style="stroke:#000000;stroke-width:0.5;" width="4" x="682.5469" y="68.03"/><text fill="#000000" font-family="'Verdana'" font-size="24" lengthAdjust="spacing" textLength="69.2695" x="610.2774" y="99.3073">Nginx</text></g><!--entity Fetcher--><g class="entity" data-qualified-name="Analytics Server.Fetcher" data-source-line="38" id="ent0010"><rect fill="#FFFFFF" height="57.9375" rx="2.5" ry="2.5" style="stroke:#000000;stroke-width:0.5;" width="131.0195" x="584.4074" y="367.03"/><rect fill="#FFFFFF" height="10" style="stroke:#000000;stroke-width:0.5;" width="15" x="695.4269" y="372.03"/><rect fill="#FFFFFF" height="2" style="stroke:#000000;stroke-width:0.5;" width="4" x="693.4269" y="374.03"/><rect fill="#FFFFFF" height="2" style="stroke:#000000;stroke-width:0.5;" width="4" x="693.4269" y="378.03"/><text fill="#000000" font-family="'Verdana'" font-size="24" lengthAdjust="spacing" textLength="91.0195" x="599.4074" y="409.3073">Fetcher</text></g><!--entity Analyzer--><g class="entity" data-qualified-name="Analytics Server.Analyzer" data-source-line="39" id="ent0011"><rect fill="#FFFFFF" height="57.9375" rx="2.5" ry="2.5" style="stroke:#000000;stroke-width:0.5;" width="144.4375" x="577.6974" y="525.03"/><rect fill="#FFFFFF" height="10" style="stroke:#000000;stroke-width:0.5;" width="15" x="702.1349" y="530.03"/><rect fill="#FFFFFF" height="2" style="stroke:#000000;stroke-width:0.5;" width="4" x="700.1349" y="532.03"/><rect fill="#FFFFFF" height="2" style="stroke:#000000;stroke-width:0.5;" width="4" x="700.1349" y="536.03"/><text fill="#000000" font-family="'Verdana'" font-size="24" lengthAdjust="spacing" textLength="104.4375" x="592.6974" y="567.3073">Analyzer</text></g><!--entity Ollama--><g class="entity" data-qualified-name="Ollama Server.Ollama" data-source-line="43" id="ent0013"><rect fill="#FFFFFF" height="57.9375" rx="2.5" ry="2.5" style="stroke:#000000;stroke-width:0.5;" width="269.0781" x="909.9174" y="744.03"/><rect fill="#FFFFFF" height="10" style="stroke:#000000;stroke-width:0.5;" width="15" x="1158.9955" y="749.03"/><rect fill="#FFFFFF" height="2" style="stroke:#000000;stroke-width:0.5;" width="4" x="1156.9955" y="751.03"/><rect fill="#FFFFFF" height="2" style="stroke:#000000;stroke-width:0.5;" width="4" x="1156.9955" y="755.03"/><text fill="#000000" font-family="'Verdana'" font-size="24" lengthAdjust="spacing" textLength="229.0781" x="924.9174" y="786.3073">Ollama (Local LLM)</text></g><!--entity Backend--><g class="entity" data-qualified-name="Backend Server.Backend" data-source-line="47" id="ent0015"><rect fill="#FFFFFF" height="57.9375" rx="2.5" ry="2.5" style="stroke:#000000;stroke-width:0.5;" width="143.4766" x="1350.7574" y="304.03"/><rect fill="#FFFFFF" height="10" style="stroke:#000000;stroke-width:0.5;" width="15" x="1474.234" y="309.03"/><rect fill="#FFFFFF" height="2" style="stroke:#000000;stroke-width:0.5;" width="4" x="1472.234" y="311.03"/><rect fill="#FFFFFF" height="2" style="stroke:#000000;stroke-width:0.5;" width="4" x="1472.234" y="315.03"/><text fill="#000000" font-family="'Verdana'" font-size="24" lengthAdjust="spacing" textLength="103.4766" x="1365.7574" y="346.3073">Backend</text></g><!--entity RMQ--><g class="entity" data-qualified-name="Message Broker Server.RMQ" data-source-line="51" id="ent0017"><rect fill="#FFFFFF" height="57.9375" rx="2.5" ry="2.5" style="stroke:#000000;stroke-width:0.5;" width="157.5273" x="1343.7274" y="497.03"/><rect fill="#FFFFFF" height="10" style="stroke:#000000;stroke-width:0.5;" width="15" x="1481.2547" y="502.03"/><rect fill="#FFFFFF" height="2" style="stroke:#000000;stroke-width:0.5;" width="4" x="1479.2547" y="504.03"/><rect fill="#FFFFFF" height="2" style="stroke:#000000;stroke-width:0.5;" width="4" x="1479.2547" y="508.03"/><text fill="#000000" font-family="'Verdana'" font-size="24" lengthAdjust="spacing" textLength="117.5273" x="1358.7274" y="539.3073">RabbitMQ</text></g><!--entity DB--><g class="entity" data-qualified-name="Database Server.DB" data-source-line="55" id="ent0019"><path d="M1774.9974,314.53 C1774.9974,304.53 1917.888,304.53 1917.888,304.53 C1917.888,304.53 2060.7786,304.53 2060.7786,314.53 L2060.7786,351.4675 C2060.7786,361.4675 1917.888,361.4675 1917.888,361.4675 C1917.888,361.4675 1774.9974,361.4675 1774.9974,351.4675 L1774.9974,314.53" fill="#FFFFFF" style="stroke:#000000;stroke-width:0.5;"/><path d="M1774.9974,314.53 C1774.9974,324.53 1917.888,324.53 1917.888,324.53 C1917.888,324.53 2060.7786,324.53 2060.7786,314.53" fill="none" style="stroke:#000000;stroke-width:0.5;"/><text fill="#000000" font-family="'Verdana'" font-size="24" lengthAdjust="spacing" textLength="265.7813" x="1784.9974" y="350.8073">PostgreSQL + PostGIS</text></g><!--link Browser to Nginx--><g class="link" data-entity-1="ent0003" data-entity-2="ent0008" data-link-type="dependency" data-source-line="59" id="lnk20"><path d="M229.9774,86 C327.7974,86 499.8374,86 589.0074,86" fill="none" id="Browser-to-Nginx" style="stroke:#181818;stroke-width:1;"/><polygon fill="#181818" points="595.0074,86,586.0074,82,590.0074,86,586.0074,90,595.0074,86" style="stroke:#181818;stroke-width:1;"/><text fill="#000000" font-family="'Verdana'" font-size="24" lengthAdjust="spacing" textLength="162.2578" x="322.9174" y="80.2773">HTTP / HTTPS</text></g><!--link GDELT to Fetcher--><g class="link" data-entity-1="ent0005" data-entity-2="ent0010" data-link-type="dependency" data-source-line="60" id="lnk21"><path d="M258.5574,277.41 C355.1274,306.75 495.0164,349.2462 578.4064,374.5762" fill="none" id="GDELT-to-Fetcher" style="stroke:#181818;stroke-width:1;"/><polygon fill="#181818" points="584.1474,376.32,576.6985,369.8769,579.3632,374.8668,574.3733,377.5316,584.1474,376.32" style="stroke:#181818;stroke-width:1;"/><text fill="#000000" font-family="'Verdana'" font-size="24" lengthAdjust="spacing" textLength="128.1211" x="339.9174" y="294.3673">HTTP / FTP</text></g><!--link News to Fetcher--><g class="link" data-entity-1="ent0006" data-entity-2="ent0010" data-link-type="dependency" data-source-line="61" id="lnk22"><path d="M290.2474,410.36 C300.9574,410.62 311.6274,410.84 321.9174,411 C394.7974,412.13 413.1074,414.34 485.9174,411 C518.2774,409.51 548.1679,406.9744 577.9979,403.9544" fill="none" id="News-to-Fetcher" style="stroke:#181818;stroke-width:1;"/><polygon fill="#181818" points="583.9674,403.35,574.6103,400.2769,578.9928,403.8536,575.4161,408.2362,583.9674,403.35" style="stroke:#181818;stroke-width:1;"/><text fill="#000000" font-family="'Verdana'" font-size="24" lengthAdjust="spacing" textLength="107.4375" x="350.4174" y="405.2773">HTTP API</text></g><!--link Nginx to Backend--><g class="link" data-entity-1="ent0008" data-entity-2="ent0015" data-link-type="dependency" data-source-line="63" id="lnk23"><path d="M704.7974,103.27 C840.7174,146.84 1191.8638,259.3883 1344.6738,308.3783" fill="none" id="Nginx-to-Backend" style="stroke:#181818;stroke-width:1;"/><polygon fill="#181818" points="1350.3874,310.21,1343.0382,303.6534,1345.6261,308.6836,1340.5959,311.2714,1350.3874,310.21" style="stroke:#181818;stroke-width:1;"/><text fill="#000000" font-family="'Verdana'" font-size="24" lengthAdjust="spacing" textLength="61.8398" x="1013.9574" y="156.0273">HTTP</text></g><!--link Analyzer to Ollama--><g class="link" data-entity-1="ent0011" data-entity-2="ent0013" data-link-type="dependency" data-source-line="64" id="lnk24"><path d="M700.5874,583.25 C733.0074,602.23 776.3174,627.35 814.9174,649 C873.7774,682.01 936.5376,715.9183 982.9776,740.7783" fill="none" id="Analyzer-to-Ollama" style="stroke:#181818;stroke-width:1;"/><polygon fill="#181818" points="988.2674,743.61,982.2205,735.836,983.8593,741.2503,978.445,742.889,988.2674,743.61" style="stroke:#181818;stroke-width:1;"/><text fill="#000000" font-family="'Verdana'" font-size="24" lengthAdjust="spacing" textLength="61.8398" x="815.9174" y="643.2773">HTTP</text></g><!--link Fetcher to RMQ--><g class="link" data-entity-1="ent0010" data-entity-2="ent0017" data-link-type="dependency" data-source-line="66" id="lnk25"><path d="M715.6174,406.91 C856.5474,430.69 1184.881,486.0819 1337.341,511.8019" fill="none" id="Fetcher-to-RMQ" style="stroke:#181818;stroke-width:1;"/><polygon fill="#181818" points="1343.2574,512.8,1335.0482,507.3586,1338.3271,511.9683,1333.7174,515.2471,1343.2574,512.8" style="stroke:#181818;stroke-width:1;"/><text fill="#000000" font-family="'Verdana'" font-size="24" lengthAdjust="spacing" textLength="70.4883" x="1009.4574" y="430.1473">AMQP</text></g><!--link Analyzer to RMQ--><g class="link" data-entity-1="ent0011" data-entity-2="ent0017" data-link-type="dependency" data-source-line="67" id="lnk26"><path d="M662.3674,583.38 C689.5574,648.5 764.9474,803.9 885.9174,864 C1012.1274,926.7 1079.2174,931.37 1202.9974,864 C1327.2774,796.35 1389.8737,629.9688 1411.3537,560.9788" fill="none" id="Analyzer-to-RMQ" style="stroke:#181818;stroke-width:1;"/><polygon fill="#181818" points="1413.1374,555.25,1406.6428,562.654,1411.651,560.024,1414.2811,565.0322,1413.1374,555.25" style="stroke:#181818;stroke-width:1;"/><text fill="#000000" font-family="'Verdana'" font-size="24" lengthAdjust="spacing" textLength="70.4883" x="1009.4574" y="858.2773">AMQP</text></g><!--link Analyzer to Backend--><g class="link" data-entity-1="ent0011" data-entity-2="ent0015" data-link-type="dependency" data-source-line="68" id="lnk27"><path d="M722.5674,563.11 C855.1474,578.3 1131.7474,601.73 1202.9974,543 C1230.7074,520.15 1199.6174,493.58 1219.9974,464 C1251.9474,417.61 1300.8505,386.3522 1345.0305,364.6822" fill="none" id="Analyzer-to-Backend" style="stroke:#181818;stroke-width:1;"/><polygon fill="#181818" points="1350.4174,362.04,1340.5756,362.4121,1345.9283,364.2419,1344.0985,369.5946,1350.4174,362.04" style="stroke:#181818;stroke-width:1;"/><text fill="#000000" font-family="'Verdana'" font-size="24" lengthAdjust="spacing" textLength="61.8398" x="1013.9574" y="537.2773">HTTP</text></g><!--link Backend to DB--><g class="link" data-entity-1="ent0015" data-entity-2="ent0019" data-link-type="dependency" data-source-line="70" id="lnk28"><path d="M1494.7074,333 C1567.6274,333 1676.9674,333 1768.6674,333" fill="none" id="Backend-to-DB" style="stroke:#181818;stroke-width:1;"/><polygon fill="#181818" points="1774.6674,333,1765.6674,329,1769.6674,333,1765.6674,337,1774.6674,333" style="stroke:#181818;stroke-width:1;"/><text fill="#000000" font-family="'Verdana'" font-size="24" lengthAdjust="spacing" textLength="45.8906" x="1665.9974" y="327.2773">TCP</text></g><?plantuml-src XLBVQnD147xVlsAu5rkaMCKdeKBJjBMGnAI9-b1ysDnjaxENtRAxQMgB8EgRFXInj5ZgZzG7eO882XMfVyFaFtBsVfWp9kqzxCtCzystCxCJYNKBLe4EMsqBGQY5RqCb6JCReTpacdUWewJosrfr15ZT5Jd4j7cWUg5imJgFJ1u9n3hlHdP9ILlXbEZT5phWadlZEVLmHy2DcpbGga0OiGdNPsSPkmBuVl0Kp_1yy1o_uzdW6Vx0NuDNvB_4du3VOjUPWnVu6yzpEXNIAN1_ewLLLmOBAb8QUktGvejTK9rD9OMqbn6BtF8cDvSBHgeRZ2UDbgPq87H2Q4QKCRQi2qX_Ixf8A2xdFmADTMvk3l0r7kC-VgRp4FS1J_00Z_0Ky13mBLaK9AXF4M8pvXu6l7j6Q2YAhT0N7kmoeC_FoeMrWbOz8Zm4RY2rsHF6V5S7U8lRLcZ98wYhhlQ5oGJMbekBfGPKjNf4InWdnv44h8YUWR88GWxNOBwwOcA2Yphfj9K-DVCElm9-fA8_aEFEOznpeKCoFf6xHs2V_YVKNPzEYi1K73_0DvHmX5-8UUf6aLSvdSxt_q0qeIxqbj1Zsg-qGhcTbESiLr-IDKzTFxQXRoRdBWdhjzFHfVOe9LRPIJcPCxpaRXJn3fzyGufFbPHFRr0gbQTZeIGyb77hAsGmMISb98-SsCFiiZ26juHx_GtQb8aYgxpP36sv5gkibcj3XMonHtA3BEnLbR4jBUgr4bm5voolr3qdKomu5POk7ipCt4xU0Mx1dKQZIklZVdMMh9k3qq4F2KkDAeiNRWnAkyTO8ZZZu6nG2Soo1ubJqrcd4CkKuZpgbe3vSksVd8k0aPjOviTWiK3nnaAL_G40?></g></svg>