<?plantuml 1.2026.2?><svg xmlns="http://www.w3.org/2000/svg" xmlns:xlink="http://www.w3.org/1999/xlink" contentStyleType="text/css" data-diagram-type="DESCRIPTION" height="1179px" preserveAspectRatio="none" style="width:1468px;height:1179px;background:#FFFFFF;" version="1.1" viewBox="0 0 1468 1179" width="1468px" zoomAndPan="magnify"><defs/><g><!--cluster us--><g class="cluster" data-qualified-name="us" data-source-line="20" id="ent0002"><polygon fill="none" points="895,35.092,905,25.092,1187,25.092,1187,187.372,1177,197.372,895,197.372,895,35.092" style="stroke:#181818;stroke-width:1;"/><line style="stroke:#181818;stroke-width:1;" x1="1177" x2="1187" y1="35.092" y2="25.092"/><line style="stroke:#181818;stroke-width:1;" x1="895" x2="1177" y1="35.092" y2="35.092"/><line style="stroke:#181818;stroke-width:1;" x1="1177" x2="1177" y1="35.092" y2="197.372"/><text fill="#000000" font-family="'Verdana'" font-size="20" font-weight="bold" lengthAdjust="spacing" textLength="196.7969" x="938.6016" y="66.6565">User Smartphone</text></g><!--cluster es--><g class="cluster" data-qualified-name="es" data-source-line="24" id="ent0004"><path d="M97.5203,45.3372 C106.4085,25.8459 121.6684,18.8773 137.4111,38.3131 C151.6628,18.9583 168.1778,17.1359 181.582,39.2165 C190.0955,19.8354 204.1789,18.746 216.3061,35.7696 C227.6804,16.4486 250.0474,11.5674 262.0004,35.1532 C274.1018,18.3622 288.5256,17.7209 299.691,36.1547 C309.7807,14.8028 325.5352,14.4286 341.7211,29.0276 C353.0599,11.3703 366.8348,10.5877 378.248,28.9521 C389.8317,6.1545 412.3198,6 423.5546,29.295 C441.1901,9.1709 453.7663,14.3402 465.2044,35.5411 C477.8953,16.5492 491.053,15.8247 504.424,34.8392 C519.6399,16.7816 531.2261,18.8221 541.8617,39.2902 C556.0801,21.2711 568.2696,19.2247 581.1836,40.5924 C593.9938,16.0143 614.4531,17.7188 626.5029,41.308 C639.445,22.3269 657.8192,23.8189 667,45.092 C668.8143,43.24 670.6731,43.4579 671.8892,45.7909 C710.4244,65.9189 712.5711,89.8898 676.2609,114.7618 C708.6551,148.5661 705.0773,172.4522 660,189.372 C663.4811,188.2681 665.2618,189.9206 665.2829,193.3787 C651.9961,218.2782 634.8271,218.1218 619.6514,195.1804 C609.0196,211.3905 597.8645,212.633 585.3869,197.1778 C571.8873,215.1885 551.3307,213.4897 542.6013,192.0097 C529.9819,212.0672 516.1317,211.3385 500.8279,195.0991 C488.1098,214.5772 473.3111,215.6901 459.6877,196.0512 C448.764,217.5167 430.2199,214.1214 419.4116,195.9338 C405.8486,211.3592 393.764,212.9386 383.5036,192.6163 C370.4989,214.1924 354.3464,212.1886 342.0659,191.8995 C329.5823,215.0701 313.2257,218.2548 296.158,196.5937 C283.703,213.2056 268.2348,208.8932 260.6991,191.4688 C247.3296,213.687 233.2129,214.4324 216.0433,195.6029 C203.2879,212.643 189.8853,209.4407 180.1081,192.4573 C165.9458,209.5757 151.8846,209.0375 138.5547,191.4603 C117.9125,215.4463 97.9323,213.4669 87,182.372 C90.0649,183.8067 89.6149,186.1317 87.4784,188.0078 C49.6546,169.2245 52.4704,139.2606 85.2823,118.2534 C55.3731,94.2845 53.125,54.363 94,38.092 C98.8861,38.2266 100.4828,41.3892 97.5203,45.3372" fill="none" style="stroke:#181818;stroke-width:1;"/><text fill="#000000" font-family="'Verdana'" font-size="20" font-weight="bold" lengthAdjust="spacing" textLength="190.6738" x="281.6631" y="71.6565">External Sources</text></g><!--cluster Cloud Infrastructure / Server--><g class="cluster" data-qualified-name="Cloud Infrastructure . Server" data-source-line="34" id="ent0009"><polygon fill="none" points="16,280.372,26,270.372,1451,270.372,1451,1152.212,1441,1162.212,16,1162.212,16,280.372" style="stroke:#181818;stroke-width:1;"/><line style="stroke:#181818;stroke-width:1;" x1="1441" x2="1451" y1="280.372" y2="270.372"/><line style="stroke:#181818;stroke-width:1;" x1="16" x2="1441" y1="280.372" y2="280.372"/><line style="stroke:#181818;stroke-width:1;" x1="1441" x2="1441" y1="280.372" y2="1162.212"/><text fill="#000000" font-family="'Verdana'" font-size="20" font-weight="bold" lengthAdjust="spacing" textLength="324.707" x="567.1465" y="311.9365">Cloud Infrastructure / Server</text></g><!--cluster Docker Compose / K8s Cluster--><g class="cluster" data-qualified-name="Cloud Infrastructure . Server.Docker Compose . K8s Cluster" data-source-line="35" id="ent0010"><polygon fill="none" points="40,355.372,50,345.372,1427,345.372,1427,1128.212,1417,1138.212,40,1138.212,40,355.372" style="stroke:#181818;stroke-width:1;"/><line style="stroke:#181818;stroke-width:1;" x1="1417" x2="1427" y1="355.372" y2="345.372"/><line style="stroke:#181818;stroke-width:1;" x1="40" x2="1417" y1="355.372" y2="355.372"/><line style="stroke:#181818;stroke-width:1;" x1="1417" x2="1417" y1="355.372" y2="1138.212"/><text fill="#000000" font-family="'Verdana'" font-size="20" font-weight="bold" lengthAdjust="spacing" textLength="338.8477" x="560.0762" y="386.9365">Docker Compose / K8s Cluster</text></g><!--cluster web--><g class="cluster" data-qualified-name="Cloud Infrastructure . Server.Docker Compose . K8s Cluster.web" data-source-line="38" id="ent0011"><polygon fill="none" points="1019,438.372,1029,428.372,1395,428.372,1395,590.652,1385,600.652,1019,600.652,1019,438.372" style="stroke:#181818;stroke-width:1;"/><line style="stroke:#181818;stroke-width:1;" x1="1385" x2="1395" y1="438.372" y2="428.372"/><line style="stroke:#181818;stroke-width:1;" x1="1019" x2="1385" y1="438.372" y2="438.372"/><line style="stroke:#181818;stroke-width:1;" x1="1385" x2="1385" y1="438.372" y2="600.652"/><text fill="#000000" font-family="'Verdana'" font-size="20" font-weight="bold" lengthAdjust="spacing" textLength="100.8301" x="1152.585" y="469.9365">Web Tier</text></g><!--cluster app--><g class="cluster" data-qualified-name="Cloud Infrastructure . Server.Docker Compose . K8s Cluster.app" data-source-line="42" id="ent0013"><polygon fill="none" points="1033,691.652,1043,681.652,1380,681.652,1380,843.932,1370,853.932,1033,853.932,1033,691.652" style="stroke:#181818;stroke-width:1;"/><line style="stroke:#181818;stroke-width:1;" x1="1370" x2="1380" y1="691.652" y2="681.652"/><line style="stroke:#181818;stroke-width:1;" x1="1033" x2="1370" y1="691.652" y2="691.652"/><line style="stroke:#181818;stroke-width:1;" x1="1370" x2="1370" y1="691.652" y2="853.932"/><text fill="#000000" font-family="'Verdana'" font-size="20" font-weight="bold" lengthAdjust="spacing" textLength="251.1719" x="1076.9141" y="723.2165">Application Tier (Java)</text></g><!--cluster db_tier--><g class="cluster" data-qualified-name="Cloud Infrastructure . Server.Docker Compose . K8s Cluster.db_tier" data-source-line="46" id="ent0015"><polygon fill="none" points="1030,944.932,1040,934.932,1384,934.932,1384,1096.212,1374,1106.212,1030,1106.212,1030,944.932" style="stroke:#181818;stroke-width:1;"/><line style="stroke:#181818;stroke-width:1;" x1="1374" x2="1384" y1="944.932" y2="934.932"/><line style="stroke:#181818;stroke-width:1;" x1="1030" x2="1374" y1="944.932" y2="944.932"/><line style="stroke:#181818;stroke-width:1;" x1="1374" x2="1374" y1="944.932" y2="1106.212"/><text fill="#000000" font-family="'Verdana'" font-size="20" font-weight="bold" lengthAdjust="spacing" textLength="157.3242" x="1124.3379" y="976.4965">Database Tier</text></g><!--cluster ai--><g class="cluster" data-qualified-name="Cloud Infrastructure . Server.Docker Compose . K8s Cluster.ai" data-source-line="51" id="ent0017"><polygon fill="none" points="72,438.372,82,428.372,979,428.372,979,590.652,969,600.652,72,600.652,72,438.372" style="stroke:#181818;stroke-width:1;"/><line style="stroke:#181818;stroke-width:1;" x1="969" x2="979" y1="438.372" y2="428.372"/><line style="stroke:#181818;stroke-width:1;" x1="72" x2="969" y1="438.372" y2="438.372"/><line style="stroke:#181818;stroke-width:1;" x1="969" x2="969" y1="438.372" y2="600.652"/><text fill="#000000" font-family="'Verdana'" font-size="20" font-weight="bold" lengthAdjust="spacing" textLength="178.5254" x="432.2373" y="469.9365">AI Tier (Python)</text></g><!--cluster mb--><g class="cluster" data-qualified-name="Cloud Infrastructure . Server.Docker Compose . K8s Cluster.mb" data-source-line="60" id="ent0023"><polygon fill="none" points="702,691.652,712,681.652,979,681.652,979,843.932,969,853.932,702,853.932,702,691.652" style="stroke:#181818;stroke-width:1;"/><line style="stroke:#181818;stroke-width:1;" x1="969" x2="979" y1="691.652" y2="681.652"/><line style="stroke:#181818;stroke-width:1;" x1="702" x2="969" y1="691.652" y2="691.652"/><line style="stroke:#181818;stroke-width:1;" x1="969" x2="969" y1="691.652" y2="853.932"/><text fill="#000000" font-family="'Verdana'" font-size="20" font-weight="bold" lengthAdjust="spacing" textLength="181.1914" x="745.9043" y="723.2165">Message Broker</text></g><!--entity Mobile--><g class="entity" data-qualified-name="us.Mobile" data-source-line="21" id="ent0003"><rect fill="#F1F1F1" height="73.2813" rx="2.5" ry="2.5" style="stroke:#181818;stroke-width:0.5;" width="171.0352" x="933.48" y="100.092"/><rect fill="#F1F1F1" height="10" style="stroke:#181818;stroke-width:0.5;" width="15" x="1084.5152" y="105.092"/><rect fill="#F1F1F1" height="2" style="stroke:#181818;stroke-width:0.5;" width="4" x="1082.5152" y="107.092"/><rect fill="#F1F1F1" height="2" style="stroke:#181818;stroke-width:0.5;" width="4" x="1082.5152" y="111.092"/><text fill="#000000" font-family="'Verdana'" font-size="20" lengthAdjust="spacing" textLength="111.0352" x="958.48" y="148.6565">Mobile App</text></g><!--entity GDELT--><g class="entity" data-qualified-name="es.GDELT" data-source-line="25" id="ent0005"><rect fill="#F1F1F1" height="73.2813" rx="2.5" ry="2.5" style="stroke:#181818;stroke-width:0.5;" width="202.4707" x="102.76" y="100.092"/><rect fill="#F1F1F1" height="10" style="stroke:#181818;stroke-width:0.5;" width="15" x="285.2307" y="105.092"/><rect fill="#F1F1F1" height="2" style="stroke:#181818;stroke-width:0.5;" width="4" x="283.2307" y="107.092"/><rect fill="#F1F1F1" height="2" style="stroke:#181818;stroke-width:0.5;" width="4" x="283.2307" y="111.092"/><text fill="#000000" font-family="'Verdana'" font-size="20" lengthAdjust="spacing" textLength="142.4707" x="127.76" y="148.6565">GDELT Project</text></g><!--entity News--><g class="entity" data-qualified-name="es.News" data-source-line="26" id="ent0006"><rect fill="#F1F1F1" height="73.2813" rx="2.5" ry="2.5" style="stroke:#181818;stroke-width:0.5;" width="241.9824" x="365.01" y="100.092"/><rect fill="#F1F1F1" height="10" style="stroke:#181818;stroke-width:0.5;" width="15" x="586.9924" y="105.092"/><rect fill="#F1F1F1" height="2" style="stroke:#181818;stroke-width:0.5;" width="4" x="584.9924" y="107.092"/><rect fill="#F1F1F1" height="2" style="stroke:#181818;stroke-width:0.5;" width="4" x="584.9924" y="111.092"/><text fill="#000000" font-family="'Verdana'" font-size="20" lengthAdjust="spacing" textLength="181.9824" x="390.01" y="148.6565">News Media / APIs</text></g><!--entity Nginx--><g class="entity" data-qualified-name="Cloud Infrastructure . Server.Docker Compose . K8s Cluster.web.Nginx" data-source-line="39" id="ent0012"><rect fill="#F1F1F1" height="73.2813" rx="2.5" ry="2.5" style="stroke:#181818;stroke-width:0.5;" width="283.5254" x="1043.24" y="503.372"/><rect fill="#F1F1F1" height="10" style="stroke:#181818;stroke-width:0.5;" width="15" x="1306.7654" y="508.372"/><rect fill="#F1F1F1" height="2" style="stroke:#181818;stroke-width:0.5;" width="4" x="1304.7654" y="510.372"/><rect fill="#F1F1F1" height="2" style="stroke:#181818;stroke-width:0.5;" width="4" x="1304.7654" y="514.372"/><text fill="#000000" font-family="'Verdana'" font-size="20" lengthAdjust="spacing" textLength="223.5254" x="1068.24" y="551.9365">Nginx (Reverse Proxy)</text></g><!--entity Core--><g class="entity" data-qualified-name="Cloud Infrastructure . Server.Docker Compose . K8s Cluster.app.Core" data-source-line="43" id="ent0014"><rect fill="#F1F1F1" height="73.2813" rx="2.5" ry="2.5" style="stroke:#181818;stroke-width:0.5;" width="187.002" x="1074.5" y="756.652"/><rect fill="#F1F1F1" height="10" style="stroke:#181818;stroke-width:0.5;" width="15" x="1241.502" y="761.652"/><rect fill="#F1F1F1" height="2" style="stroke:#181818;stroke-width:0.5;" width="4" x="1239.502" y="763.652"/><rect fill="#F1F1F1" height="2" style="stroke:#181818;stroke-width:0.5;" width="4" x="1239.502" y="767.652"/><text fill="#000000" font-family="'Verdana'" font-size="20" lengthAdjust="spacing" textLength="127.002" x="1099.5" y="805.2165">Core Service</text></g><!--entity DB--><g class="entity" data-qualified-name="Cloud Infrastructure . Server.Docker Compose . K8s Cluster.db_tier.DB" data-source-line="47" id="ent0016"><path d="M1098.26,1019.932 C1098.26,1009.932 1229.0022,1009.932 1229.0022,1009.932 C1229.0022,1009.932 1359.7444,1009.932 1359.7444,1019.932 L1359.7444,1072.2133 C1359.7444,1082.2133 1229.0022,1082.2133 1229.0022,1082.2133 C1229.0022,1082.2133 1098.26,1082.2133 1098.26,1072.2133 L1098.26,1019.932" fill="#F1F1F1" style="stroke:#181818;stroke-width:0.5;"/><path d="M1098.26,1019.932 C1098.26,1029.932 1229.0022,1029.932 1229.0022,1029.932 C1229.0022,1029.932 1359.7444,1029.932 1359.7444,1019.932" fill="none" style="stroke:#181818;stroke-width:0.5;"/><text fill="#000000" font-family="'Verdana'" font-size="20" lengthAdjust="spacing" textLength="221.4844" x="1118.26" y="1062.4965">PostgreSQL + PostGIS</text></g><!--entity Fetcher--><g class="entity" data-qualified-name="Cloud Infrastructure . Server.Docker Compose . K8s Cluster.ai.Fetcher" data-source-line="52" id="ent0018"><rect fill="#F1F1F1" height="73.2813" rx="2.5" ry="2.5" style="stroke:#181818;stroke-width:0.5;" width="216.123" x="95.94" y="503.372"/><rect fill="#F1F1F1" height="10" style="stroke:#181818;stroke-width:0.5;" width="15" x="292.063" y="508.372"/><rect fill="#F1F1F1" height="2" style="stroke:#181818;stroke-width:0.5;" width="4" x="290.063" y="510.372"/><rect fill="#F1F1F1" height="2" style="stroke:#181818;stroke-width:0.5;" width="4" x="290.063" y="514.372"/><text fill="#000000" font-family="'Verdana'" font-size="20" lengthAdjust="spacing" textLength="156.123" x="120.94" y="551.9365">Fetcher Service</text></g><!--entity Analyzer--><g class="entity" data-qualified-name="Cloud Infrastructure . Server.Docker Compose . K8s Cluster.ai.Analyzer" data-source-line="53" id="ent0019"><rect fill="#F1F1F1" height="73.2813" rx="2.5" ry="2.5" style="stroke:#181818;stroke-width:0.5;" width="227.3047" x="372.35" y="503.372"/><rect fill="#F1F1F1" height="10" style="stroke:#181818;stroke-width:0.5;" width="15" x="579.6547" y="508.372"/><rect fill="#F1F1F1" height="2" style="stroke:#181818;stroke-width:0.5;" width="4" x="577.6547" y="510.372"/><rect fill="#F1F1F1" height="2" style="stroke:#181818;stroke-width:0.5;" width="4" x="577.6547" y="514.372"/><text fill="#000000" font-family="'Verdana'" font-size="20" lengthAdjust="spacing" textLength="167.3047" x="397.35" y="551.9365">Analyzer Service</text></g><!--entity Ollama--><g class="entity" data-qualified-name="Cloud Infrastructure . Server.Docker Compose . K8s Cluster.ai.Ollama" data-source-line="54" id="ent0020"><rect fill="#F1F1F1" height="73.2813" rx="2.5" ry="2.5" style="stroke:#181818;stroke-width:0.5;" width="250.8984" x="659.55" y="503.372"/><rect fill="#F1F1F1" height="10" style="stroke:#181818;stroke-width:0.5;" width="15" x="890.4484" y="508.372"/><rect fill="#F1F1F1" height="2" style="stroke:#181818;stroke-width:0.5;" width="4" x="888.4484" y="510.372"/><rect fill="#F1F1F1" height="2" style="stroke:#181818;stroke-width:0.5;" width="4" x="888.4484" y="514.372"/><text fill="#000000" font-family="'Verdana'" font-size="20" lengthAdjust="spacing" textLength="190.8984" x="684.55" y="551.9365">Ollama (Local LLM)</text></g><!--entity RMQ--><g class="entity" data-qualified-name="Cloud Infrastructure . Server.Docker Compose . K8s Cluster.mb.RMQ" data-source-line="61" id="ent0024"><rect fill="#F1F1F1" height="73.2813" rx="2.5" ry="2.5" style="stroke:#181818;stroke-width:0.5;" width="157.9395" x="726.03" y="756.652"/><rect fill="#F1F1F1" height="10" style="stroke:#181818;stroke-width:0.5;" width="15" x="863.9695" y="761.652"/><rect fill="#F1F1F1" height="2" style="stroke:#181818;stroke-width:0.5;" width="4" x="861.9695" y="763.652"/><rect fill="#F1F1F1" height="2" style="stroke:#181818;stroke-width:0.5;" width="4" x="861.9695" y="767.652"/><text fill="#000000" font-family="'Verdana'" font-size="20" lengthAdjust="spacing" textLength="97.9395" x="751.03" y="805.2165">RabbitMQ</text></g><!--link GDELT to News--><!--link us to es--><!--link Fetcher to Analyzer--><!--link Analyzer to Ollama--><!--link Analyzer to Ollama--><g class="link" data-entity-1="ent0019" data-entity-2="ent0020" data-link-type="dependency" data-source-line="86" id="lnk35"><path d="M599.89,528.212 C619.28,528.212 633.52,528.212 653.2,528.212" fill="none" id="Analyzer-to-Ollama" style="stroke:#181818;stroke-width:1;"/><polygon fill="#181818" points="659.2,528.212,650.2,524.212,654.2,528.212,650.2,532.212,659.2,528.212" style="stroke:#181818;stroke-width:1;"/><text fill="#000000" font-family="'Verdana'" font-size="20" lengthAdjust="spacing" textLength="6.3574" x="626.4641" y="557.7765">&#160;</text><text fill="#000000" font-family="'Verdana'" font-size="20" lengthAdjust="spacing" textLength="90.1855" x="584.55" y="581.0577">Local API</text><text fill="#000000" font-family="'Verdana'" font-size="20" lengthAdjust="spacing" textLength="6.3574" x="626.4641" y="604.339">&#160;</text></g><!--link web to ai--><!--link app to mb--><!--link web to app--><!--link app to db_tier--><!--link ai to mb--><!--link Mobile to Nginx--><g class="link" data-entity-1="ent0003" data-entity-2="ent0012" data-link-type="dependency" data-source-line="78" id="lnk30"><path d="M1073.88,173.582 C1073.88,250.292 1073.88,420.332 1073.88,497.092" fill="none" id="Mobile-to-Nginx" style="stroke:#181818;stroke-width:1;"/><polygon fill="#181818" points="1073.88,503.092,1077.88,494.092,1073.88,498.092,1069.88,494.092,1073.88,503.092" style="stroke:#181818;stroke-width:1;"/><text fill="#000000" font-family="'Verdana'" font-size="20" lengthAdjust="spacing" textLength="6.3574" x="1149.2648" y="276.9065">&#160;</text><text fill="#000000" font-family="'Verdana'" font-size="20" lengthAdjust="spacing" textLength="135.127" x="1084.88" y="300.1877">HTTPS / REST</text><text fill="#000000" font-family="'Verdana'" font-size="20" lengthAdjust="spacing" textLength="6.3574" x="1149.2648" y="323.469">&#160;</text></g><!--link Nginx to Core--><g class="link" data-entity-1="ent0012" data-entity-2="ent0014" data-link-type="dependency" data-source-line="79" id="lnk31"><path d="M1168,577.112 C1168,625.202 1168,702.562 1168,750.502" fill="none" id="Nginx-to-Core" style="stroke:#181818;stroke-width:1;"/><polygon fill="#181818" points="1168,756.502,1172,747.502,1168,751.502,1164,747.502,1168,756.502" style="stroke:#181818;stroke-width:1;"/><text fill="#000000" font-family="'Verdana'" font-size="20" lengthAdjust="spacing" textLength="6.3574" x="1082.7402" y="605.3665">&#160;</text><text fill="#000000" font-family="'Verdana'" font-size="20" lengthAdjust="spacing" textLength="143.8379" x="1014" y="628.6477">Reverse Proxy</text><text fill="#000000" font-family="'Verdana'" font-size="20" lengthAdjust="spacing" textLength="6.3574" x="1082.7402" y="651.929">&#160;</text></g><!--link Core to DB--><g class="link" data-entity-1="ent0014" data-entity-2="ent0016" data-link-type="dependency" data-source-line="80" id="lnk32"><path d="M1179.88,830.322 C1179.88,878.452 1179.88,955.992 1179.88,1003.762" fill="none" id="Core-to-DB" style="stroke:#181818;stroke-width:1;"/><polygon fill="#181818" points="1179.88,1009.762,1183.88,1000.762,1179.88,1004.762,1175.88,1000.762,1179.88,1009.762" style="stroke:#181818;stroke-width:1;"/><text fill="#000000" font-family="'Verdana'" font-size="20" lengthAdjust="spacing" textLength="6.3574" x="1256.3488" y="858.6065">&#160;</text><text fill="#000000" font-family="'Verdana'" font-size="20" lengthAdjust="spacing" textLength="137.2949" x="1190.88" y="881.8877">JDBC / Spatial</text><text fill="#000000" font-family="'Verdana'" font-size="20" lengthAdjust="spacing" textLength="6.3574" x="1256.3488" y="905.169">&#160;</text></g><!--link GDELT to Fetcher--><g class="link" data-entity-1="ent0005" data-entity-2="ent0018" data-link-type="dependency" data-source-line="82" id="lnk33"><path d="M204,173.582 C204,250.292 204,420.332 204,497.092" fill="none" id="GDELT-to-Fetcher" style="stroke:#181818;stroke-width:1;"/><polygon fill="#181818" points="204,503.092,208,494.092,204,498.092,200,494.092,204,503.092" style="stroke:#181818;stroke-width:1;"/><text fill="#000000" font-family="'Verdana'" font-size="20" lengthAdjust="spacing" textLength="6.3574" x="164.5879" y="276.9065">&#160;</text><text fill="#000000" font-family="'Verdana'" font-size="20" lengthAdjust="spacing" textLength="51.5332" x="142" y="300.1877">HTTP</text><text fill="#000000" font-family="'Verdana'" font-size="20" lengthAdjust="spacing" textLength="6.3574" x="164.5879" y="323.469">&#160;</text></g><!--link News to Analyzer--><g class="link" data-entity-1="ent0006" data-entity-2="ent0019" data-link-type="dependency" data-source-line="83" id="lnk34"><path d="M486,173.582 C486,250.292 486,420.332 486,497.092" fill="none" id="News-to-Analyzer" style="stroke:#181818;stroke-width:1;"/><polygon fill="#181818" points="486,503.092,490,494.092,486,498.092,482,494.092,486,503.092" style="stroke:#181818;stroke-width:1;"/><text fill="#000000" font-family="'Verdana'" font-size="20" lengthAdjust="spacing" textLength="6.3574" x="428.7178" y="276.9065">&#160;</text><text fill="#000000" font-family="'Verdana'" font-size="20" lengthAdjust="spacing" textLength="87.793" x="388" y="300.1877">Scraping</text><text fill="#000000" font-family="'Verdana'" font-size="20" lengthAdjust="spacing" textLength="6.3574" x="428.7178" y="323.469">&#160;</text></g><!--link Fetcher to RMQ--><g class="link" data-entity-1="ent0018" data-entity-2="ent0024" data-link-type="dependency" data-source-line="88" id="lnk36"><path d="M204,576.882 C204,649.752 204,805.212 204,805.212 C204,805.212 556.61,805.212 719.81,805.212" fill="none" id="Fetcher-to-RMQ" style="stroke:#181818;stroke-width:1;"/><polygon fill="#181818" points="725.81,805.212,716.81,801.212,720.81,805.212,716.81,809.212,725.81,805.212" style="stroke:#181818;stroke-width:1;"/><text fill="#000000" font-family="'Verdana'" font-size="20" lengthAdjust="spacing" textLength="6.3574" x="307.9314" y="743.7765">&#160;</text><text fill="#000000" font-family="'Verdana'" font-size="20" lengthAdjust="spacing" textLength="58.7402" x="281.74" y="767.0577">AMQP</text><text fill="#000000" font-family="'Verdana'" font-size="20" lengthAdjust="spacing" textLength="6.3574" x="307.9314" y="790.339">&#160;</text></g><!--link Analyzer to RMQ--><g class="link" data-entity-1="ent0019" data-entity-2="ent0024" data-link-type="dependency" data-source-line="89" id="lnk37"><path d="M486,576.902 C486,644.472 486,781.212 486,781.212 C486,781.212 625.26,781.212 719.74,781.212" fill="none" id="Analyzer-to-RMQ" style="stroke:#181818;stroke-width:1;"/><polygon fill="#181818" points="725.74,781.212,716.74,777.212,720.74,781.212,716.74,785.212,725.74,781.212" style="stroke:#181818;stroke-width:1;"/><text fill="#000000" font-family="'Verdana'" font-size="20" lengthAdjust="spacing" textLength="6.3574" x="460.9014" y="719.7765">&#160;</text><text fill="#000000" font-family="'Verdana'" font-size="20" lengthAdjust="spacing" textLength="58.7402" x="434.71" y="743.0577">AMQP</text><text fill="#000000" font-family="'Verdana'" font-size="20" lengthAdjust="spacing" textLength="6.3574" x="460.9014" y="766.339">&#160;</text></g><!--link Core to RMQ--><g class="link" data-entity-1="ent0014" data-entity-2="ent0024" data-link-type="dependency" data-source-line="92" id="lnk38"><path d="M1074.05,812.212 C1015.23,812.212 946.28,812.212 890.43,812.212" fill="none" id="Core-to-RMQ" style="stroke:#181818;stroke-width:1;"/><polygon fill="#181818" points="884.43,812.212,893.43,816.212,889.43,812.212,893.43,808.212,884.43,812.212" style="stroke:#181818;stroke-width:1;"/><text fill="#000000" font-family="'Verdana'" font-size="20" lengthAdjust="spacing" textLength="6.3574" x="936.4314" y="841.7765">&#160;</text><text fill="#000000" font-family="'Verdana'" font-size="20" lengthAdjust="spacing" textLength="58.7402" x="910.24" y="865.0577">AMQP</text><text fill="#000000" font-family="'Verdana'" font-size="20" lengthAdjust="spacing" textLength="6.3574" x="936.4314" y="888.339">&#160;</text></g><?plantuml-src ZLPVJnj747-_Jp7o2w3MQP9AKHI9I62Jb1IdW6dx4A9gVRVWA-VRqzuwG2ga92ZgGo8LeQ3IHAMbgQe-H8gBSFaNagymzuqwitSsXx7RdcJVxSnlv-_Ep0u1RYUFyGE-nvFaEHuawzZ6Tu2dsC8FoIFwtyCJ8ftY8RQ1a7lOJXubJvDre4-c7ZX6HM0Kr9GngW6UhwLhV1KwpX3WpzXA7YTFID9xFC9ZF0HUqZOMUkJ4ItuO2IrecrmGpS3SKg6f-WybNBtSdtbND2GKlfBQ4w4ev3217qgp6abGsjILLRv3YbdvEhdoB0SDbITZ6S6rl0ujmYKcNiyJ8-5vVhW8LovRWNzOzvzWAmTfg52vTQt8BAERCiU9wy9JoxnzGGHndZCktAL5hPgXLrA1qh1Szura3QEZet3b4k0c1MuB_wJ_RVm9y3N-YZj4t2B26mOvx08KleobXcf3Q1FLLIWB869enl2T0_IugX4HCJHmhw9gVY1XB8hkCoHTEckEumQgwK5XOiL87Oe0gggfNHbRGRAFeDlbYQavcDRgMygnbMKflR2xSfcqICyNy0cCJK_65ifKYqob5E_LVS-JuNtjBzPDCMMJJUH0Bql6JYSwLoawsnI6toaa6xYBlz7xDRwaDmTf8nUSalLjCbpG8gRCkAQf9PbJbVg1r8NCjnHQLkuIHRB47iGC-lnw3AMW6Pip93_T3peBhoWRcsJ2Mo3jExJS8QjUuaONauh-MjPWpcSn585bMfn9wmtQeX-kmF2i9FF820hookf86ZZcTBUjNJGdLKNf3NnNSErPbJ1yHpmG8rQpYAB1cakA8iDnyLrf5JBXl_MLXH4rGQPs_VDgtnXMV5wJry4LfbLi5hMipap1Hy2BsvDLkx4ydbENZ_8lDit_8yvZavdFqwjK_c7cjJ_OwLlIk7KkdvpV6MtGbZ4gaTM7FNiwn46RlWW2qH0mFALSAh2fgKgQqvHyRjEvHSUytbBegwvhM2-wHyl0L5Pa78j52UDQBMMvRFpBKPqLjPflAZFMazdAp83axTfcUKpjiaFa0kYrKVXTDf_INdQZTj7eSsAenuP5tjfVJChEJkP5KNH4Ug2PmZNkHMdF-VGI-xA9R_57tBOTXeV12nffVwK3Cld1Jitv472VLu3lpqOFje2YqCPZE_bQbiUJj8Nly31v2ZGA3-qaFNAoFbqi5c-cHGyte30VVZOtDrsbhZGxKPsR3mjEoh8eMxeMTAvlCCgoBAWydaBkbCTBt04ZwX4YO8oJjM96TKvSLwLLnPtSihjdpFAhhXOHZJOhP8XRycwtLb_PERMDMq3nUa6BNNnpWuVOVkfg5gtiNj0cuZ5T9uQBQS9lZW3T4WXxCReVG_8zXP0OoRDSJFcsqawlB6qymB_fVUASbKGcDgk5rFoq66aoMVkxjSP-qd5ECMEL6Hk2CqbzsOuzw7jav47o72YdRR9Wd-z7ntofejyfbm0dEqj97o7_0000?></g></svg>